<?xml version="1.0" standalone="no"?>
<!DOCTYPE svg PUBLIC "-//W3C//DTD SVG 1.1//EN" "http://www.w3.org/Graphics/SVG/1.1/DTD/svg11.dtd" >
<svg xmlns="http://www.w3.org/2000/svg">
<metadata></metadata>
<defs>
<font id="planerregular" horiz-adv-x="978" >
<font-face units-per-em="2048" ascent="1536" descent="-512" />
<missing-glyph horiz-adv-x="614" />
<glyph horiz-adv-x="2048" />
<glyph horiz-adv-x="2048" />
<glyph unicode="&#xd;" horiz-adv-x="2048" />
<glyph unicode=" "  horiz-adv-x="614" />
<glyph unicode="&#x09;" horiz-adv-x="614" />
<glyph unicode="&#xa0;" horiz-adv-x="614" />
<glyph unicode="!" horiz-adv-x="313" d="M102 55v88q0 25 14.5 39.5t39.5 14.5q24 0 39.5 -15t15.5 -39v-88q0 -23 -16 -39t-39 -16q-24 0 -39 15.5t-15 39.5zM102 449v915q0 25 14.5 39t39.5 14q24 0 39.5 -14.5t15.5 -38.5v-915q0 -23 -16 -39.5t-39 -16.5q-24 0 -39 16t-15 40z" />
<glyph unicode="&#x22;" horiz-adv-x="591" d="M102 1040v322q0 24 15 39.5t39 15.5t39.5 -15.5t15.5 -39.5v-322q0 -24 -15.5 -38.5t-39.5 -14.5t-39 14.5t-15 38.5zM381 1040v322q0 25 14 40t39 15q24 0 39.5 -15.5t15.5 -39.5v-322q0 -24 -15.5 -38.5t-39.5 -14.5q-25 0 -39 14t-14 39z" />
<glyph unicode="#" horiz-adv-x="1230" d="M102 426q0 23 17 39t43 16h127q42 203 88 398h-219q-24 0 -40 15.5t-16 39.5q0 23 17 39t43 16h235l82 377q6 21 24.5 36t39.5 15q22 0 34.5 -14t12.5 -37v-10l-82 -367h334l80 377q6 21 24.5 36t38.5 15q22 0 34.5 -14t12.5 -37v-10l-80 -367h117q27 0 43 -15.5 t16 -39.5q0 -25 -15 -40t-40 -15h-141q-14 -67 -43.5 -196t-44.5 -202h225q27 0 43 -15.5t16 -39.5q0 -25 -15 -40t-40 -15h-252l-67 -316q-3 -23 -22 -39t-40 -16q-23 0 -35 13t-12 34v12l64 312h-330l-68 -316q-4 -23 -22.5 -39t-40.5 -16q-21 0 -34 13t-13 34v12l65 312 h-108q-24 0 -40 15.5t-16 39.5zM399 481h332q17 81 49 224t39 174h-330z" />
<glyph unicode="$" horiz-adv-x="1081" d="M102 53q0 20 16 36.5t36 16.5h338v582q-57 11 -93.5 20t-81.5 24.5t-73.5 33t-58 45t-46 61.5t-27 82t-10.5 107q0 180 98.5 264t291.5 90v45q0 25 15 40.5t40 15.5q24 0 39.5 -16t15.5 -42v-41h287q24 0 40.5 -15.5t16.5 -37.5q0 -21 -16 -37t-37 -16h-291v-533 q98 -19 163 -42.5t116 -63.5t74.5 -101t23.5 -149q0 -212 -92 -312.5t-285 -109.5v-39q0 -27 -15.5 -43t-39.5 -16q-25 0 -40 15t-15 40v43h-338q-20 0 -36 16t-16 37zM207 1061q0 -56 13.5 -97t35 -67.5t60.5 -46t77.5 -30.5t98.5 -23v512q-140 -6 -212.5 -65t-72.5 -183z M602 106q135 11 202.5 86t67.5 230q0 117 -60.5 167t-209.5 81v-564z" />
<glyph unicode="%" horiz-adv-x="1269" d="M102 53q0 17 13 37l950 1311q16 22 49 22q16 0 31 -10q22 -14 22 -45q0 -18 -10 -31l-954 -1312q-11 -25 -45 -25q-15 0 -31 8q-25 14 -25 45zM137 1141q0 149 55 214.5t173 65.5t173.5 -66t55.5 -216q0 -151 -57 -222t-172 -71q-116 0 -172 71t-56 224zM246 1141 q0 -98 26.5 -145.5t92.5 -47.5t93 47t27 144q0 93 -26.5 136.5t-93.5 43.5q-65 0 -92 -43.5t-27 -134.5zM690 293q0 149 55.5 215.5t172.5 66.5t173 -67t56 -217q0 -151 -56 -221t-173 -70t-172.5 70.5t-55.5 222.5zM799 293q0 -96 26.5 -143.5t92.5 -47.5q67 0 93.5 46.5 t26.5 142.5q0 95 -26 138.5t-94 43.5q-65 0 -92 -43.5t-27 -136.5z" />
<glyph unicode="&#x26;" horiz-adv-x="1214" d="M102 367q0 159 84 266t220 117q-2 2 -9 9.5t-8 10.5q-74 83 -74 225q0 156 97.5 259.5t246.5 103.5h54q149 0 246.5 -104t97.5 -261q0 -153 -94.5 -250.5t-237.5 -97.5h-94q39 -47 146 -171.5t165 -194.5q10 31 10 86q0 21 16 37t38 16q20 0 35.5 -16.5t15.5 -36.5 q0 -105 -39 -181l84 -98q10 -17 10 -33q0 -22 -15.5 -37.5t-37.5 -15.5q-24 0 -41 20l-64 74q-91 -94 -241 -94h-267q-150 0 -247 101.5t-97 265.5zM209 367q0 -116 67.5 -188.5t169.5 -72.5h267q106 0 172 72l-391 467h-48q-101 0 -169 -79t-68 -199zM422 995 q0 -97 49 -155l74 -88h180q97 0 162 67.5t65 173.5q0 111 -68.5 185.5t-170.5 74.5h-54q-101 0 -169 -74.5t-68 -183.5z" />
<glyph unicode="'" horiz-adv-x="313" d="M102 1040v322q0 25 14.5 40t39.5 15q24 0 39.5 -15.5t15.5 -39.5v-322q0 -24 -15.5 -38.5t-39.5 -14.5q-25 0 -39.5 14t-14.5 39z" />
<glyph unicode="(" horiz-adv-x="491" d="M102 612q0 83 19.5 195t46.5 213.5t54.5 190t47 142.5t19.5 52q15 33 47 33q22 0 36.5 -15t14.5 -37q0 -10 -4 -16q-7 -19 -18 -52t-40 -129t-51.5 -185t-40.5 -199.5t-18 -192.5q0 -132 42.5 -327t84.5 -324l43 -129q4 -8 4 -16q0 -23 -14.5 -37.5t-36.5 -14.5 q-34 0 -47 33q-8 21 -20.5 57.5t-45 142t-57.5 201.5t-45.5 213.5t-20.5 200.5z" />
<glyph unicode=")" horiz-adv-x="491" d="M102 -184q0 4 4 16q7 20 18 54t40 133.5t51.5 191t40.5 205t18 196.5q0 82 -17 190t-41 204.5t-48.5 179.5t-41.5 133.5t-17 48.5q-5 10 -5 18q0 22 14.5 37t37.5 15q13 0 27 -9.5t20 -21.5q8 -20 20.5 -55.5t44.5 -138t56.5 -196t44.5 -208t20 -197.5t-19.5 -197.5 t-47 -218.5t-55 -196.5t-47.5 -147.5l-19 -55q-6 -15 -19.5 -24t-27.5 -9q-23 0 -37.5 14.5t-14.5 37.5z" />
<glyph unicode="*" horiz-adv-x="843" d="M102 1151v8q0 11 2 15q7 29 43 38q1 0 5.5 1t5.5 1l2 -1q3 -1 8 -1l201 -67v205q0 15 10.5 30.5t23.5 18.5q8 4 21 4q17 0 32.5 -12t18.5 -27q4 -8 4 -18v-201l189 57q8 4 20 4q38 0 51 -41q2 -6 2 -14q0 -42 -36 -51l-199 -60l129 -180l2 -16q0 -24 -21 -45 q-8 -8 -16 -8q-9 -3 -18 -3q-26 0 -43 21l-123 168l-119 -166q-15 -15 -35 -18h-8q-23 0 -35 10q-11 8 -14 24q-4 8 -4 19q0 20 12 35q21 30 61 82t60 81l-199 66q-26 11 -31 33q-2 2 -2 8z" />
<glyph unicode="+" horiz-adv-x="1202" d="M102 516q0 21 16.5 37t39.5 16h387v392q3 23 19 37t38 14q23 0 37 -13t14 -36v-394h394q23 0 38 -16t15 -39t-15 -38t-38 -15h-394v-391q-7 -54 -55 -54q-21 0 -37 16t-16 40v389h-389q-23 3 -38.5 18t-15.5 37z" />
<glyph unicode="," horiz-adv-x="395" d="M102 -78q0 15 9.5 28.5t21.5 18.5q18 6 33.5 21t15.5 37v141q0 23 16 40t40 17q22 0 38.5 -17.5t16.5 -39.5v-141q0 -53 -35.5 -94.5t-87.5 -55.5q-12 -4 -20 -4q-20 0 -34 13.5t-14 35.5z" />
<glyph unicode="-" horiz-adv-x="872" d="M102 537q0 20 16.5 35.5t39.5 15.5h559q24 0 38.5 -14.5t14.5 -38.5q0 -25 -14 -39.5t-39 -14.5h-561q-23 3 -38.5 17.5t-15.5 38.5z" />
<glyph unicode="." horiz-adv-x="321" d="M102 59v78q0 25 17 42.5t43 17.5q23 0 40 -17.5t17 -42.5v-74q0 -28 -16.5 -45.5t-40.5 -17.5q-26 0 -43 16.5t-17 42.5z" />
<glyph unicode="/" horiz-adv-x="894" d="M102 57q0 4 3 15t4 16l577 1294q18 37 51 37q5 0 23 -6q33 -10 33 -49q0 -2 -7 -23l-579 -1308q-24 -33 -49 -33q-14 0 -23 6q-33 11 -33 51z" />
<glyph unicode="0" horiz-adv-x="1167" d="M102 471v373q0 259 127 386.5t355 127.5q231 0 356 -129.5t125 -384.5v-373q0 -242 -127.5 -365.5t-353.5 -123.5q-224 0 -353 125t-129 364zM213 471q0 -185 100 -284t271 -99q172 0 271 98.5t99 284.5v373q0 200 -94.5 304.5t-275.5 104.5q-182 0 -276.5 -102.5 t-94.5 -306.5v-373z" />
<glyph unicode="1" horiz-adv-x="702" d="M102 1071q0 29 25 47l342 228q21 12 45 12q37 0 61.5 -24.5t24.5 -61.5v-1213q0 -26 -15.5 -42.5t-39.5 -16.5q-23 0 -39.5 16t-16.5 39v1174l-299 -203q-17 -10 -32 -10q-24 0 -40 16t-16 39z" />
<glyph unicode="2" horiz-adv-x="1085" d="M102 70q0 28 21 49l500 469q96 90 146 169.5t50 186.5v60q0 116 -89 182.5t-214 66.5h-346q-20 0 -36.5 16t-16.5 36q0 21 16 37t37 16h348q178 0 292 -93.5t114 -260.5v-58q0 -72 -16 -133t-48.5 -114t-67 -93t-87.5 -90l-439 -410h660q25 0 41 -16t16 -37 q0 -22 -15.5 -37.5t-37.5 -15.5h-760q-26 0 -47 21t-21 49z" />
<glyph unicode="3" horiz-adv-x="1026" d="M102 53q0 20 17 36.5t37 16.5h424q101 0 169 72t68 187q0 121 -67.5 200.5t-169.5 79.5h-258q-24 0 -41 16t-17 37q0 22 16 38t37 16h275q96 0 160.5 67.5t64.5 173.5q0 110 -68 185t-169 75h-420q-24 0 -41 15.5t-17 36.5t16.5 37t37.5 16h424q149 0 246.5 -104 t97.5 -261q0 -209 -158 -297q75 -50 116.5 -136.5t41.5 -194.5q0 -162 -98 -263.5t-246 -101.5h-424q-21 0 -37.5 16t-16.5 37z" />
<glyph unicode="4" horiz-adv-x="1167" d="M102 418q0 24 15 61l340 846q15 33 51 33q23 0 39 -15t16 -38q0 -9 -4 -21l-346 -850q-4 -8 -4 -16q0 -15 11 -25t26 -10h491v301q0 26 16 41.5t40 15.5q25 0 40 -15t15 -38v-305h162q25 0 40 -15t15 -38q0 -25 -15 -40.5t-40 -15.5h-162v-215q0 -26 -15 -42.5t-40 -16.5 q-23 0 -39.5 16t-16.5 39v219h-491q-60 0 -102 41.5t-42 102.5z" />
<glyph unicode="5" horiz-adv-x="1040" d="M102 53q0 23 15.5 39.5t38.5 16.5h340q68 0 126 13.5t105.5 42t74.5 78.5t27 117v142q0 113 -85.5 172t-217.5 59h-336q-38 0 -63 24t-25 62v432q0 38 25 64t63 26h652q23 0 39 -16t16 -39q0 -24 -15.5 -38.5t-39.5 -14.5h-631v-395h317q118 0 208.5 -35.5t146 -112.5 t55.5 -188v-142q0 -95 -33.5 -165.5t-94.5 -112.5t-139 -62t-173 -20h-342q-23 0 -38.5 15t-15.5 38z" />
<glyph unicode="6" horiz-adv-x="1097" d="M102 469v399q0 247 127.5 368.5t366.5 121.5h297q24 0 40.5 -15.5t16.5 -37.5q0 -21 -16 -36.5t-37 -15.5h-301q-183 0 -282 -96.5t-99 -288.5v-24h350q430 0 430 -359v-86q0 -183 -113 -291t-329 -108q-229 0 -340 111.5t-111 357.5zM215 473q0 -201 81 -284t257 -83 q166 0 247 78t81 215v86q0 124 -80.5 188t-239.5 64h-346v-264z" />
<glyph unicode="7" horiz-adv-x="1038" d="M102 1305q0 21 16.5 37t37.5 16h649q53 0 92 -38.5t39 -92.5q0 -27 -10 -49l-502 -1147q-17 -31 -49 -31q-21 0 -37 16t-16 37q0 7 4 23l501 1141q0 1 1 4.5t1 5.5q0 10 -7.5 18t-16.5 8h-645q-24 0 -41 15.5t-17 36.5z" />
<glyph unicode="8" horiz-adv-x="1159" d="M102 367q0 110 41.5 196t116.5 133q-76 43 -117 119.5t-41 179.5q0 156 97.5 259.5t246.5 103.5h267q149 0 246.5 -104t97.5 -261q0 -209 -158 -297q75 -50 116.5 -136.5t41.5 -194.5q0 -162 -98 -263.5t-246 -101.5h-267q-148 0 -246 102t-98 265zM209 367 q0 -116 67.5 -188.5t169.5 -72.5h267q101 0 169 72t68 187q0 121 -67.5 200.5t-169.5 79.5h-267q-101 0 -169 -79t-68 -199zM209 995q0 -106 64.5 -173t162.5 -70h289q96 0 160.5 67.5t64.5 173.5q0 110 -68 185t-169 75h-267q-101 0 -169 -74.5t-68 -183.5z" />
<glyph unicode="9" horiz-adv-x="1097" d="M102 874v84q0 184 113 292t330 108q228 0 339 -111t111 -356v-402q0 -247 -127 -368t-366 -121h-297q-26 0 -42 15.5t-16 37.5q0 21 16.5 37t37.5 16h301q183 0 281 95.5t98 287.5v27h-349q-430 0 -430 358zM215 874q0 -251 322 -251h344v264q0 199 -80.5 282.5 t-255.5 83.5q-168 0 -249 -78t-81 -217v-84z" />
<glyph unicode=":" horiz-adv-x="321" d="M102 59v78q0 25 17 42.5t43 17.5q23 0 40 -17.5t17 -42.5v-74q0 -28 -16.5 -45.5t-40.5 -17.5q-26 0 -43 16.5t-17 42.5zM102 737v78q0 24 17 41.5t43 17.5q23 0 40 -18t17 -41v-74q0 -28 -16.5 -45.5t-40.5 -17.5q-26 0 -43 16.5t-17 42.5z" />
<glyph unicode=";" horiz-adv-x="399" d="M102 -78q0 15 9.5 28.5t21.5 18.5q18 6 33.5 21t15.5 37v141q0 23 16 40t40 17q22 0 38.5 -17.5t16.5 -39.5v-141q0 -53 -35 -94.5t-88 -55.5q-12 -4 -20 -4q-20 0 -34 13.5t-14 35.5zM180 737v78q0 24 17 41.5t43 17.5q23 0 40 -18t17 -41v-74q0 -28 -16.5 -45.5 t-40.5 -17.5q-26 0 -43 16.5t-17 42.5z" />
<glyph unicode="&#x3c;" horiz-adv-x="935" d="M102 635q0 46 37 72l621 401q8 4 20 4q24 0 39 -14.5t15 -38.5q0 -22 -23 -39l-586 -381l582 -403q27 -14 27 -48q0 -22 -15.5 -35.5t-38.5 -13.5q-16 0 -30 11q-545 364 -613 413q-35 24 -35 72z" />
<glyph unicode="=" horiz-adv-x="1202" d="M102 397q0 22 16.5 38t39.5 16h889q23 0 38 -15.5t15 -40.5q0 -23 -15 -38t-38 -15h-891q-23 3 -38.5 18t-15.5 37zM102 729q0 21 16.5 37t39.5 16h889q23 0 38 -16t15 -39q0 -24 -14.5 -38.5t-38.5 -14.5h-891q-23 3 -38.5 17.5t-15.5 37.5z" />
<glyph unicode="&#x3e;" horiz-adv-x="935" d="M102 188q0 15 7 27.5t16 17.5l584 406l-588 381q-19 16 -19 39q0 25 14.5 39t39.5 14q10 0 18 -4l619 -401q41 -26 41 -72q0 -48 -37 -72q-31 -23 -184 -126t-291.5 -195t-139.5 -92q-18 -11 -26 -11q-25 0 -39.5 13.5t-14.5 35.5z" />
<glyph unicode="?" horiz-adv-x="933" d="M102 1364q0 22 15 37.5t39 15.5h278q189 0 293 -88.5t104 -259.5q0 -89 -38 -160t-117 -143l-129 -115q-88 -81 -88 -155v-45q0 -26 -16 -42t-40 -16q-23 0 -38 15t-15 38v50q0 77 28 122.5t95 106.5l127 119q117 108 117 225q0 119 -71.5 180.5t-211.5 61.5h-274 q-27 0 -42.5 14.5t-15.5 38.5zM346 57v84q0 23 17.5 40.5t42.5 17.5q22 0 39.5 -17.5t17.5 -40.5v-80q0 -27 -17 -44t-40 -17q-25 0 -42.5 17t-17.5 40z" />
<glyph unicode="@" horiz-adv-x="1167" d="M102 471v373q0 259 127 386.5t355 127.5q232 0 356.5 -130t124.5 -390q0 -116 -43 -221t-116.5 -168.5t-157.5 -63.5h-224q-82 0 -139 57t-57 140q0 81 57 136.5t139 55.5h187v66q0 43 -20.5 70.5t-57.5 27.5h-215q-25 0 -39 13t-14 36q0 24 14.5 38.5t38.5 14.5h215 q81 0 132.5 -55.5t51.5 -140.5v-338q66 47 101.5 134t35.5 204q0 200 -94.5 304.5t-275.5 104.5q-182 0 -276.5 -102.5t-94.5 -306.5v-373q0 -185 100 -284t271 -99q80 0 151 23q10 4 17 4q26 0 41.5 -16.5t15.5 -41.5q0 -17 -11 -31.5t-26 -19.5q-76 -24 -188 -24 q-224 0 -353 125t-129 364zM434 582q0 -37 27 -65t63 -28h187v179h-187q-37 0 -63.5 -25.5t-26.5 -60.5z" />
<glyph unicode="A" horiz-adv-x="1286" d="M102 53q0 13 2 19q68 228 196.5 648.5t180.5 594.5q15 53 60 86t102 33q58 0 102.5 -33t59.5 -86l377 -1249q0 -1 1 -6.5t1 -6.5q0 -21 -16.5 -37t-39.5 -16q-14 0 -29 12t-22 25l-125 391h-622l-119 -391q-6 -15 -21.5 -26t-33.5 -11q-20 0 -37 16.5t-17 36.5zM365 537 h557l-226 743q-8 16 -23.5 28.5t-29.5 12.5t-29.5 -13t-23.5 -28q-147 -491 -225 -743z" />
<glyph unicode="B" horiz-adv-x="1187" d="M102 92v1249q0 40 26.5 66.5t66.5 26.5h460q155 0 265 -110t110 -265q0 -200 -164 -307q99 -52 159 -147t60 -210q0 -164 -115.5 -279.5t-281.5 -115.5h-493q-40 0 -66.5 26t-26.5 66zM213 106h475q119 0 205 85.5t86 203.5q0 120 -86 205.5t-205 85.5h-475v-580z M213 795h442q110 0 188.5 77.5t78.5 186.5q0 110 -78.5 188t-188.5 78h-442v-530z" />
<glyph unicode="C" horiz-adv-x="1091" d="M102 483v455q0 259 124 377.5t358 118.5h352q21 0 37 -16.5t16 -37.5q0 -22 -15.5 -38.5t-37.5 -16.5h-352q-369 0 -369 -387v-455q0 -168 97 -272.5t272 -104.5h348q24 0 40.5 -15.5t16.5 -37.5q0 -21 -16 -37t-37 -16h-352q-228 0 -355 131t-127 352z" />
<glyph unicode="D" horiz-adv-x="1175" d="M102 92v1249q0 40 26.5 66.5t66.5 26.5h397q234 0 357.5 -118.5t123.5 -377.5v-455q0 -221 -126.5 -352t-354.5 -131h-397q-40 0 -66.5 26t-26.5 66zM213 106h379q175 0 272 104.5t97 272.5v455q0 387 -369 387h-379v-1219z" />
<glyph unicode="E" horiz-adv-x="1058" d="M102 92v1249q0 39 27 66t66 27h702q27 0 43 -16t16 -40q0 -25 -15 -40t-40 -15h-686v-522h563q26 0 43 -16t17 -40q0 -25 -16 -41t-40 -16h-567v-577h682q27 0 43 -15.5t16 -40.5q0 -24 -15.5 -39.5t-39.5 -15.5h-706q-39 0 -66 26.5t-27 65.5z" />
<glyph unicode="F" horiz-adv-x="1058" d="M102 55v1286q0 39 27 66t66 27h702q27 0 43 -16t16 -40q0 -25 -15 -40t-40 -15h-686v-522h563q26 0 43 -16t17 -40q0 -25 -16 -41t-40 -16h-567v-629q0 -26 -15.5 -42.5t-39.5 -16.5q-25 0 -41.5 16t-16.5 39z" />
<glyph unicode="G" horiz-adv-x="1202" d="M102 483v455q0 259 124 377.5t358 118.5h391q20 0 36.5 -17t16.5 -37q0 -22 -16.5 -38.5t-36.5 -16.5h-391q-369 0 -369 -387v-455q0 -168 97.5 -272.5t271.5 -104.5h405v517h-244q-25 0 -41 16t-16 39q0 21 16 37t37 16h267q39 0 65.5 -26.5t26.5 -65.5v-547 q0 -40 -26 -66t-66 -26h-424q-228 0 -355 131t-127 352z" />
<glyph unicode="H" horiz-adv-x="1220" d="M102 55v1323q0 23 16.5 39.5t39.5 16.5q25 0 40 -17t15 -43v-602h793v606q0 24 16 40t41 16q23 0 39 -17t16 -43v-1315q0 -26 -15.5 -42.5t-39.5 -16.5q-25 0 -41 16t-16 39v611h-793v-607q0 -26 -15 -42.5t-40 -16.5q-23 0 -39.5 16t-16.5 39z" />
<glyph unicode="I" horiz-adv-x="315" d="M102 55v1323q0 24 16 40t40 16q25 0 40 -17t15 -43v-1315q0 -26 -15 -42.5t-40 -16.5q-24 0 -40 16t-16 39z" />
<glyph unicode="J" horiz-adv-x="589" d="M102 53q0 22 16 37.5t38 15.5q52 0 81 2t57 12.5t41 27.5t23.5 51t13.5 79t3 115v985q0 23 16 39.5t39 16.5q25 0 40 -17t15 -43v-473q0 -68 1 -238t1 -288q0 -66 -4.5 -117t-15.5 -90t-24 -66.5t-35.5 -46t-44.5 -29.5t-57.5 -17t-66.5 -7.5t-79 -1.5q-25 0 -41.5 16 t-16.5 37z" />
<glyph unicode="K" horiz-adv-x="1087" d="M102 55v1323q0 24 16 40t40 16q23 0 39 -16.5t16 -39.5v-616h160q8 0 10 2l479 647q19 23 43 23q25 0 41.5 -16.5t16.5 -39.5q0 -18 -11 -32l-477 -635l498 -619q12 -15 12 -37q0 -24 -15.5 -39.5t-39.5 -15.5q-28 0 -43 23q-80 99 -249 312t-249 312q-4 8 -12 8h-164 v-596q0 -26 -15.5 -42.5t-39.5 -16.5t-40 16t-16 39z" />
<glyph unicode="L" horiz-adv-x="995" d="M102 92v1286q0 23 16.5 39.5t39.5 16.5q24 0 40.5 -16t16.5 -40v-1267h619q26 0 42.5 -15.5t16.5 -40.5q0 -23 -16 -39t-39 -16h-643q-39 0 -66 26.5t-27 65.5z" />
<glyph unicode="M" horiz-adv-x="1478" d="M102 55v1231q0 60 44 104t104 44q49 0 88 -28.5t53 -74.5l336 -1132q68 217 193.5 611.5t166.5 524.5q13 43 54 71t88 28q60 0 103.5 -44t43.5 -104v-1231q0 -23 -16 -39t-39 -16q-24 0 -39.5 15.5t-15.5 39.5v1231q0 15 -11 26t-26 11q-27 0 -31 -25 q-336 -1046 -399 -1245q-17 -53 -72 -53q-57 0 -74 53l-370 1243q-3 11 -13 19t-20 8q-15 0 -26 -11t-11 -26v-1231q0 -24 -15.5 -39.5t-39.5 -15.5q-23 0 -39.5 16t-16.5 39z" />
<glyph unicode="N" horiz-adv-x="1241" d="M102 55v1225q0 64 45 109t109 45q45 0 82.5 -25t56.5 -66l551 -1206q11 -26 39 -26q15 0 26.5 12t14.5 31v1224q0 23 16 39.5t39 16.5q25 0 41.5 -16.5t16.5 -39.5v-1224q0 -64 -44.5 -109t-109.5 -45q-45 0 -82.5 25t-56.5 65l-551 1206q-12 27 -39 27q-19 0 -31 -12 t-12 -31v-1225q0 -24 -15.5 -39.5t-39.5 -15.5q-23 0 -39.5 16t-16.5 39z" />
<glyph unicode="O" horiz-adv-x="1261" d="M102 483v455q0 259 124.5 377.5t357.5 118.5h94q234 0 357.5 -118.5t123.5 -377.5v-455q0 -221 -126.5 -352t-354.5 -131h-94q-227 0 -354.5 131.5t-127.5 351.5zM217 483q0 -168 96.5 -272.5t270.5 -104.5h94q175 0 272 104.5t97 272.5v455q0 387 -369 387h-94 q-367 0 -367 -387v-455z" />
<glyph unicode="P" horiz-adv-x="1132" d="M102 55v1286q0 40 26.5 66.5t64.5 26.5h462q156 0 265.5 -110t109.5 -263q0 -155 -110 -265t-265 -110h-442v-627q0 -26 -15.5 -42.5t-39.5 -16.5t-40 16t-16 39zM213 795h442q110 0 188.5 78t78.5 188q0 109 -78.5 186.5t-188.5 77.5h-442v-530z" />
<glyph unicode="Q" horiz-adv-x="1261" d="M102 483v455q0 259 124.5 377.5t357.5 118.5h94q234 0 357.5 -118.5t123.5 -377.5v-455q0 -146 -56 -255.5t-165 -168.5l186 -184q21 -17 21 -45q0 -23 -17 -39t-43 -16q-22 0 -38 16l-226 223q-60 -14 -143 -14h-94q-227 0 -354.5 131.5t-127.5 351.5zM217 483 q0 -168 96.5 -272.5t270.5 -104.5h94q175 0 272 104.5t97 272.5v455q0 387 -369 387h-94q-367 0 -367 -387v-455z" />
<glyph unicode="R" horiz-adv-x="1132" d="M102 55v1286q0 40 26.5 66.5t64.5 26.5h462q156 0 265.5 -110t109.5 -263q0 -150 -103 -258.5t-251 -116.5l323 -604q7 -14 7 -27q0 -23 -16.5 -39t-39.5 -16q-15 0 -29 9.5t-20 23.5l-356 653h-332v-631q0 -23 -16 -39t-39 -16q-24 0 -40 16t-16 39zM213 795h442 q110 0 188.5 78t78.5 188q0 109 -78.5 186.5t-188.5 77.5h-442v-530z" />
<glyph unicode="S" horiz-adv-x="1091" d="M102 53q0 22 16 37.5t38 15.5h397q164 0 247 76t83 244q0 54 -13.5 93t-36 64.5t-68 45.5t-92 32t-124.5 27q-178 34 -245 60q-133 53 -177 166q-25 66 -25 159q0 192 115.5 276.5t333.5 84.5h346q25 0 42 -16.5t17 -37.5q0 -22 -16.5 -38.5t-38.5 -16.5h-350 q-167 0 -254.5 -58.5t-87.5 -193.5q0 -45 9.5 -80.5t23 -61t41.5 -46t51.5 -32.5t68 -24t76.5 -18t90 -16q86 -15 146.5 -32t115.5 -45t87.5 -66t51.5 -94.5t19 -131.5q0 -224 -108.5 -325t-327.5 -101h-397q-22 0 -38 16t-16 37z" />
<glyph unicode="T" horiz-adv-x="1241" d="M102 1380q0 20 17 37t37 17h923q25 0 42.5 -16.5t17.5 -37.5q0 -22 -17 -38.5t-39 -16.5h-407v-1272q0 -20 -16.5 -36.5t-36.5 -16.5q-21 0 -37.5 16t-16.5 37v1272h-413q-20 0 -37 16.5t-17 38.5z" />
<glyph unicode="U" horiz-adv-x="1185" d="M102 412v968q0 21 16.5 37.5t37.5 16.5t37 -16.5t16 -37.5v-968q0 -146 79 -231t189 -85h250q118 0 184 86t66 230v964q0 25 15.5 41.5t37.5 16.5q21 0 37 -16.5t16 -37.5v-968q0 -192 -96.5 -308t-263.5 -116h-244q-77 0 -144.5 27.5t-120 79.5t-82.5 133.5t-30 183.5z " />
<glyph unicode="V" horiz-adv-x="1232" d="M102 1380q0 20 17 37t37 17q18 0 33.5 -10t19.5 -27l350 -1243q19 -43 57 -43q18 0 34 12.5t24 30.5q57 204 175.5 621.5t174.5 621.5q4 16 19.5 26.5t31.5 10.5q21 0 38 -17t17 -37l-1 -6q-1 -6 -1 -10l-344 -1243q-15 -53 -61.5 -87t-106.5 -34q-59 0 -105.5 34 t-61.5 87l-345 1247q0 1 -1 6t-1 6z" />
<glyph unicode="W" horiz-adv-x="1585" d="M102 1372q0 28 17 45t39 17q21 0 37.5 -14.5t19.5 -33.5l160 -1249q2 -12 12 -21.5t25 -9.5q29 0 37 23l280 676q14 41 64 41q20 0 37.5 -11.5t25.5 -29.5l279 -676q3 -9 13.5 -16t22.5 -7q15 0 25 9.5t12 21.5l164 1256q3 18 18.5 29.5t36.5 11.5q23 0 39.5 -16.5 t16.5 -39.5q0 -6 -170 -1255q-8 -54 -47.5 -88.5t-94.5 -34.5q-43 0 -80 26t-57 64l-241 600l-244 -600q-20 -38 -57 -64t-80 -26q-55 0 -94.5 35t-47.5 88z" />
<glyph unicode="X" horiz-adv-x="1181" d="M102 55q0 17 11 31l407 625l-407 637q-11 14 -11 30q0 23 16.5 39.5t39.5 16.5q35 0 45 -27q40 -62 176 -273t213 -333l385 606q17 27 47 27q24 0 39.5 -16t15.5 -40q0 -20 -10 -30l-401 -637l401 -625q10 -17 10 -31q0 -24 -15.5 -39.5t-39.5 -15.5q-32 0 -45 27 l-385 600l-389 -600q-13 -27 -47 -27q-23 0 -39.5 16t-16.5 39z" />
<glyph unicode="Y" horiz-adv-x="1165" d="M102 1378q0 24 16 40t40 16q30 0 47 -27l381 -643l375 641q18 29 47 29q24 0 39.5 -16t15.5 -40q0 -18 -6 -28l-416 -697v-598q0 -24 -15.5 -39.5t-39.5 -15.5t-40 16t-16 39v598l-419 693q-9 27 -9 32z" />
<glyph unicode="Z" horiz-adv-x="1118" d="M102 135q0 41 25 80l776 1069q4 4 4 14q0 27 -26 27h-725q-22 0 -38 16.5t-16 38.5q0 21 16.5 37.5t37.5 16.5h725q57 0 96 -39.5t39 -96.5q0 -35 -27 -79l-776 -1069q-4 -4 -4 -15q0 -10 8.5 -17t20.5 -7h718q26 0 43 -15.5t17 -40.5q0 -23 -16 -39t-39 -16h-723 q-57 0 -96.5 39t-39.5 96z" />
<glyph unicode="[" horiz-adv-x="602" d="M102 -160v1594q0 35 23.5 58.5t60.5 23.5h258q26 0 41 -14t15 -38q0 -22 -14 -36.5t-37 -14.5h-238v-1552h233q26 0 41 -14.5t15 -36.5q0 -23 -14 -37.5t-37 -14.5h-263q-37 0 -60.5 23.5t-23.5 58.5z" />
<glyph unicode="\" horiz-adv-x="894" d="M102 1364q0 40 33 49q18 6 23 6q33 0 51 -37l575 -1294q9 -27 9 -31q0 -38 -33 -51q-9 -6 -23 -6q-25 0 -49 33l-582 1308q0 3 -2 11t-2 12z" />
<glyph unicode="]" horiz-adv-x="602" d="M102 -190q0 22 15.5 36.5t40.5 14.5h235v1552h-239q-22 0 -37 14.5t-15 36.5q0 23 15.5 37.5t40.5 14.5h260q35 0 58.5 -23.5t23.5 -58.5v-1594q0 -35 -23.5 -58.5t-58.5 -23.5h-264q-22 0 -37 14.5t-15 37.5z" />
<glyph unicode="^" horiz-adv-x="1177" d="M102 741q0 11 4 19l402 618q25 39 74 39t69 -35q23 -32 126 -184.5t195.5 -290.5t92.5 -139q10 -17 10 -27q0 -24 -13.5 -38.5t-35.5 -14.5q-34 0 -47 23l-401 583l-383 -587q-16 -19 -39 -19q-24 0 -39 14.5t-15 38.5z" />
<glyph unicode="_" horiz-adv-x="1085" d="M102 -80q0 21 15.5 37t38.5 16h774q24 0 38.5 -15.5t14.5 -39.5q0 -25 -14 -39t-39 -14h-776q-23 3 -37.5 17t-14.5 38z" />
<glyph unicode="`" horiz-adv-x="632" d="M102 1317q0 14 4 22q16 29 50 29l24 -6q29 -14 145.5 -70t174.5 -82q30 -13 30 -47q0 -12 -6 -22q-16 -31 -45 -31q-17 0 -28 8l-320 150q-29 18 -29 49z" />
<glyph unicode="a" horiz-adv-x="964" d="M102 293q0 122 86 208.5t209 86.5h357v149q0 87 -46 145t-124 58h-367q-26 0 -40.5 13.5t-14.5 37.5q0 22 14 36.5t37 14.5h371q122 0 200 -84.5t78 -214.5v-661q0 -35 -23.5 -58.5t-58.5 -23.5h-383q-123 0 -209 85t-86 208zM209 293q0 -77 55 -132t133 -55h357v377 h-357q-78 0 -133 -56t-55 -134z" />
<glyph unicode="b" horiz-adv-x="974" d="M102 86v1276q0 24 16 39.5t38 15.5q24 0 39.5 -15.5t15.5 -39.5v-320h340q135 0 228 -92.5t93 -249.5v-315q0 -61 -18 -124.5t-54 -123.5t-102 -98.5t-151 -38.5h-359q-34 0 -60 26t-26 60zM211 109h336q95 0 156 78.5t61 203.5v309q0 105 -62.5 172.5t-150.5 67.5h-340 v-831z" />
<glyph unicode="c" horiz-adv-x="886" d="M102 432v193q0 417 400 417h231q23 0 37 -14.5t14 -36.5q0 -23 -14 -37t-37 -14h-231q-293 0 -293 -315v-195q0 -160 74 -244t219 -84h231q23 0 37 -14.5t14 -36.5t-14 -36.5t-37 -14.5h-231q-202 0 -301 106t-99 326z" />
<glyph unicode="d" horiz-adv-x="974" d="M102 385v315q0 157 93.5 249.5t228.5 92.5h340v320q0 24 15.5 39.5t39.5 15.5q21 0 37 -15.5t16 -39.5v-1276q0 -34 -26 -60t-60 -26h-358q-69 0 -126 26t-93 66.5t-61 92.5t-35.5 102t-10.5 98zM211 391q0 -125 61 -203.5t156 -78.5h336v831h-340q-88 0 -150.5 -67.5 t-62.5 -172.5v-309z" />
<glyph unicode="e" horiz-adv-x="983" d="M102 485v160q0 185 108.5 291t276.5 106q191 0 292.5 -101.5t101.5 -295.5v-96q0 -35 -23.5 -58.5t-60.5 -23.5h-586q3 -188 62.5 -276.5t207.5 -88.5h314q24 0 38.5 -14.5t14.5 -36.5t-14 -36.5t-37 -14.5h-318q-110 0 -184 29t-116 92t-59.5 149.5t-17.5 214.5z M211 569h561v76q0 145 -71.5 220t-213.5 75q-129 0 -202.5 -80t-73.5 -215v-76z" />
<glyph unicode="f" horiz-adv-x="768" d="M102 973q0 22 15 36.5t37 14.5h88q17 171 105.5 265t254.5 124q29 0 45.5 -14t16.5 -37q0 -20 -11.5 -33t-29.5 -16q-119 -20 -185 -91.5t-86 -197.5h262q22 0 37 -14.5t15 -36.5t-15 -36.5t-37 -14.5h-266v-867q0 -24 -17 -39.5t-40 -15.5q-22 0 -36.5 14.5t-14.5 36.5 v871h-86q-22 0 -37 14.5t-15 36.5z" />
<glyph unicode="g" horiz-adv-x="974" d="M102 340v315q0 48 10.5 98t35.5 102.5t61 93.5t93 67t126 26h363q35 0 58 -24t23 -60v-954q0 -123 -17.5 -207.5t-60.5 -145.5t-116 -89.5t-182 -28.5h-316q-24 0 -38.5 14.5t-14.5 36.5q0 23 14 37t37 14h316q148 0 207.5 88.5t62.5 276.5h-340q-135 0 -228.5 92 t-93.5 248zM211 340q0 -104 62.5 -171t150.5 -67h340v832h-336q-95 0 -156 -79.5t-61 -205.5v-309z" />
<glyph unicode="h" d="M102 53v1309q0 24 15 39.5t39 15.5t39.5 -15.5t15.5 -39.5v-320h344q135 0 228.5 -92.5t93.5 -249.5v-647q0 -23 -16 -38t-40 -15q-23 0 -38 15t-15 38v643q0 108 -62 176t-151 68h-344v-887q0 -23 -16 -38t-39 -15t-38.5 15t-15.5 38z" />
<glyph unicode="i" horiz-adv-x="313" d="M102 53v916q0 24 15 39.5t39 15.5q23 0 39 -16t16 -39v-916q0 -23 -16 -38t-39 -15q-24 0 -39 15t-15 38zM102 1323v39q0 25 14.5 40t39.5 15q24 0 39.5 -15.5t15.5 -39.5v-39q0 -23 -16 -38t-39 -15q-24 0 -39 15t-15 38z" />
<glyph unicode="j" horiz-adv-x="514" d="M102 -334q0 13 11 35l110 158q80 115 80 264v846q0 24 14.5 39.5t38.5 15.5q23 0 39.5 -16t16.5 -39v-848q0 -94 -21 -169t-74 -151l-114 -166q-12 -22 -47 -22q-25 0 -39.5 14t-14.5 39zM303 1323v39q0 25 14 40t39 15q24 0 40 -15.5t16 -39.5v-39q0 -23 -16 -38 t-40 -15t-38.5 14.5t-14.5 38.5z" />
<glyph unicode="k" horiz-adv-x="935" d="M102 55v1307q0 25 15.5 40t40.5 15q24 0 39.5 -15.5t15.5 -39.5v-750h158q6 0 10 4l319 385q19 23 43 23q25 0 40.5 -16t15.5 -39q0 -20 -11 -31l-315 -379l350 -469q11 -14 11 -35q0 -23 -15.5 -39t-38.5 -16q-26 0 -45 23l-348 475q-2 1 -5 3t-5.5 3.5t-3.5 1.5h-160 v-447q0 -26 -15.5 -42.5t-39.5 -16.5t-40 16t-16 39z" />
<glyph unicode="l" horiz-adv-x="315" d="M102 55v1307q0 25 15.5 40t40.5 15q24 0 39.5 -16t15.5 -43v-1299q0 -26 -15.5 -42.5t-39.5 -16.5t-40 16t-16 39z" />
<glyph unicode="m" horiz-adv-x="1546" d="M102 55v899q0 35 24.5 61.5t61.5 26.5h934q134 0 228 -92.5t94 -249.5v-645q0 -22 -16 -38.5t-39 -16.5q-24 0 -39 16t-15 39v645q0 105 -62.5 172.5t-150.5 67.5h-295v-881q0 -26 -15.5 -42.5t-39.5 -16.5t-38.5 16t-14.5 39v885h-508v-881q0 -26 -15.5 -42.5 t-39.5 -16.5t-39 16t-15 39z" />
<glyph unicode="n" d="M102 55v899q0 35 24.5 61.5t61.5 26.5h367q135 0 228.5 -92.5t93.5 -249.5v-645q0 -22 -16.5 -38.5t-39.5 -16.5t-38 16.5t-15 38.5v645q0 105 -62.5 172.5t-150.5 67.5h-344v-881q0 -26 -15.5 -42.5t-39.5 -16.5q-23 0 -38.5 16.5t-15.5 38.5z" />
<glyph unicode="o" horiz-adv-x="1011" d="M102 348v311q0 164 96.5 272.5t245.5 108.5h125q147 0 243.5 -109t96.5 -272v-311q0 -161 -96.5 -260.5t-243.5 -99.5h-125q-148 0 -245 99.5t-97 260.5zM211 348q0 -107 67 -182.5t166 -75.5h125q98 0 166 76t68 182v311q0 110 -69 194.5t-165 84.5h-125 q-97 0 -165 -84.5t-68 -194.5v-311z" />
<glyph unicode="p" horiz-adv-x="974" d="M102 -322v1276q0 34 26 61t60 27h359q69 0 125.5 -26t93 -67t61 -93.5t35 -102.5t10.5 -98v-315q0 -156 -93 -248t-228 -92h-340v-322q0 -23 -16 -39t-39 -16q-22 0 -38 16t-16 39zM211 102h340q88 0 150.5 67t62.5 171v309q0 126 -61 205.5t-156 79.5h-336v-832z" />
<glyph unicode="q" horiz-adv-x="974" d="M102 340v315q0 48 10.5 98t35.5 102.5t61 93.5t93 67t126 26h358q34 0 60 -27t26 -61v-1276q0 -23 -16 -39t-37 -16q-23 0 -39 16t-16 39v322h-340q-135 0 -228.5 92t-93.5 248zM211 340q0 -104 62.5 -171t150.5 -67h340v832h-336q-95 0 -156 -79.5t-61 -205.5v-309z" />
<glyph unicode="r" horiz-adv-x="722" d="M102 53v934q0 24 15 39.5t39 15.5q23 0 39 -16t16 -39v-41q96 96 291 96h63q25 0 40.5 -14.5t15.5 -36.5q0 -23 -15 -37t-37 -14h-67q-146 0 -218.5 -79t-72.5 -222v-586q0 -23 -16 -38t-39 -15q-24 0 -39 15t-15 38z" />
<glyph unicode="s" horiz-adv-x="960" d="M102 758q0 74 28 129.5t77 88t110.5 48.5t133.5 16h313q24 0 39.5 -14.5t15.5 -36.5q0 -23 -14.5 -37t-36.5 -14h-317q-107 0 -171.5 -43t-64.5 -133q0 -84 57.5 -121t192.5 -53l78 -10q315 -44 315 -281q0 -83 -27.5 -142t-80.5 -92t-120.5 -48t-156.5 -15h-289 q-22 0 -36.5 14.5t-14.5 36.5t14.5 36.5t36.5 14.5h289q132 0 202 44.5t70 148.5q0 73 -57.5 118.5t-163.5 59.5l-88 10q-167 18 -250.5 80t-83.5 195z" />
<glyph unicode="t" horiz-adv-x="804" d="M102 971q0 23 15.5 39t38.5 16h108v168q0 23 15 39t38 16t39.5 -16t16.5 -39v-168h272q26 0 41.5 -15.5t15.5 -39.5q0 -23 -15 -38t-40 -15h-274v-578q0 -119 44.5 -175t153.5 -56h76q24 0 39.5 -16t15.5 -40q0 -23 -15 -38t-40 -15h-76q-163 0 -235 84.5t-72 255.5v578 h-108q-23 0 -38.5 15t-15.5 38z" />
<glyph unicode="u" d="M102 340v647q0 21 16.5 38t39.5 17q22 0 37.5 -17t15.5 -38v-647q0 -104 62.5 -171t150.5 -67h344v881q0 24 16 41.5t39 17.5t38.5 -17t15.5 -38v-901q0 -35 -24.5 -60.5t-61.5 -25.5h-367q-135 0 -228.5 92t-93.5 248z" />
<glyph unicode="v" horiz-adv-x="1003" d="M102 969q0 23 15.5 39t38.5 16q43 0 53 -39l248 -846q5 -14 17.5 -23.5t25.5 -9.5q17 0 29.5 8.5t15.5 22.5l250 850q5 15 19 26t32 11q23 0 39 -16t16 -39q0 -13 -2 -19l-250 -844q-14 -46 -55 -76t-94 -30q-51 0 -92.5 30t-55.5 76l-241 834q-9 27 -9 29z" />
<glyph unicode="w" horiz-adv-x="1593" d="M102 971q0 21 15.5 37t38.5 16q18 0 32 -12.5t19 -28.5l203 -842q5 -15 17.5 -25t27.5 -10q39 0 49 35l225 813q12 45 64 45q53 0 65 -45l227 -813q11 -35 45 -35q39 0 50 33l206 844q14 39 52 39q21 0 37 -16t16 -37q0 -1 -1 -6t-1 -9l-205 -839q-12 -51 -55 -83 t-99 -32q-55 0 -95 31.5t-54 81.5l-188 688l-185 -688q-14 -50 -55.5 -81.5t-97.5 -31.5q-54 0 -96 32.5t-54 82.5l-201 837q-2 6 -2 19z" />
<glyph unicode="x" horiz-adv-x="933" d="M102 51q0 18 11 33l288 428l-288 430q-11 11 -11 29q0 23 14.5 38t37.5 15q24 0 43 -23l270 -399q48 74 139 208t129 191q19 23 43 23q23 0 38 -15t15 -38q0 -19 -10 -29l-291 -430l291 -430q10 -13 10 -31q0 -22 -15 -36.5t-38 -14.5q-24 0 -43 23l-268 399 q-42 -63 -133 -196t-137 -203q-19 -23 -43 -23q-23 0 -37.5 14.5t-14.5 36.5z" />
<glyph unicode="y" horiz-adv-x="989" d="M102 971q0 23 15 38t37 15q35 0 51 -35q49 -160 142.5 -458.5t129.5 -413.5q4 -11 12 -11q17 0 17 9l278 872q7 15 20.5 26t29.5 11q23 0 38 -15t15 -38q0 -9 -2 -15l-434 -1374q-12 -35 -50 -35q-22 0 -36.5 14.5t-14.5 37.5q0 12 2 16l121 387q-33 5 -60 27.5t-36 52.5 l-273 876q0 1 -1 6.5t-1 6.5z" />
<glyph unicode="z" horiz-adv-x="933" d="M102 92q0 27 19 60l571 768h-526q-23 0 -37 14.5t-14 36.5q0 23 14 38t37 15h545q40 0 67 -27t27 -67q0 -34 -19 -56l-567 -770h555q26 0 41.5 -14.5t15.5 -38.5q0 -22 -15 -36.5t-38 -14.5h-583q-40 0 -66.5 26t-26.5 66z" />
<glyph unicode="{" horiz-adv-x="882" d="M102 639q0 21 15.5 36t38.5 15q97 0 162 68.5t65 173.5v502q0 35 23.5 58.5t58.5 23.5h260q26 0 40.5 -14t14.5 -38q0 -22 -14 -36.5t-37 -14.5h-237v-481q0 -96 -42.5 -173.5t-113.5 -119.5q71 -46 113.5 -123t42.5 -172v-483h233q26 0 40.5 -14.5t14.5 -36.5 q0 -23 -14 -37.5t-37 -14.5h-264q-35 0 -58.5 23.5t-23.5 58.5v504q0 105 -65 173.5t-164 68.5q-20 0 -36 16t-16 37z" />
<glyph unicode="|" horiz-adv-x="315" d="M102 -61v1423q0 25 15.5 40t40.5 15q24 0 39.5 -16t15.5 -43v-1415q0 -26 -16 -43t-39 -17q-24 0 -40 16t-16 40z" />
<glyph unicode="}" horiz-adv-x="882" d="M102 -190q0 22 15 36.5t39 14.5h235v483q0 95 42.5 172t113.5 123q-71 42 -113.5 119.5t-42.5 173.5v481h-237q-23 0 -37.5 14.5t-14.5 36.5q0 23 14.5 37.5t39.5 14.5h260q35 0 59.5 -23.5t24.5 -58.5v-502q0 -105 64.5 -173.5t160.5 -68.5q24 0 39.5 -15t15.5 -36 q0 -22 -15.5 -37.5t-37.5 -15.5q-97 0 -162 -68.5t-65 -173.5v-504q0 -35 -24.5 -58.5t-59.5 -23.5h-262q-23 0 -37.5 14.5t-14.5 37.5z" />
<glyph unicode="~" horiz-adv-x="1208" d="M102 324q1 121 87 206.5t206 85.5q78 0 146.5 -39.5t107.5 -105.5q25 -43 68 -68.5t94 -25.5q76 0 131.5 54.5t56.5 131.5q0 21 16.5 37t37.5 16q20 0 36.5 -16.5t16.5 -36.5q0 -120 -87.5 -206.5t-207.5 -86.5q-80 0 -148.5 41t-107.5 107q-24 42 -67 67t-93 25 q-77 0 -131.5 -55t-54.5 -131q0 -22 -15.5 -38t-37.5 -16q-21 0 -37.5 16.5t-16.5 37.5z" />
<glyph unicode="&#xa1;" horiz-adv-x="313" d="M102 -276v915q0 25 14.5 40t39.5 15q24 0 39.5 -15.5t15.5 -39.5v-915q0 -23 -16 -38.5t-39 -15.5q-24 0 -39 15t-15 39zM102 946v88q0 24 15 40t39 16q23 0 39 -16.5t16 -39.5v-88q0 -24 -15.5 -38.5t-39.5 -14.5q-25 0 -39.5 14t-14.5 39z" />
<glyph unicode="&#xa2;" horiz-adv-x="886" d="M102 432v193q0 378 344 413v107q0 26 15.5 41.5t40.5 15.5q23 0 39 -15t16 -38v-107h176q23 0 37 -14.5t14 -36.5q0 -23 -14 -37t-37 -14h-176v-838h176q23 0 37 -14.5t14 -36.5t-14 -36.5t-37 -14.5h-176v-106q0 -23 -16 -39.5t-39 -16.5q-25 0 -40.5 17t-15.5 43v102 q-178 12 -261 117t-83 315zM209 430q0 -292 237 -326v832q-237 -29 -237 -311v-195z" />
<glyph unicode="&#xa3;" horiz-adv-x="1011" d="M102 51q0 22 15 36.5t37 14.5h131v635h-82q-25 0 -40.5 14t-15.5 37q0 22 15 37t37 15h86v166q0 90 12 155t34 107t58.5 66.5t80 34t103.5 9.5h201q24 0 39.5 -14.5t15.5 -36.5t-14.5 -36.5t-36.5 -14.5h-205q-48 0 -79.5 -11.5t-55.5 -40.5t-34.5 -82.5t-10.5 -135.5 v-166h303q24 0 40 -15t16 -37q0 -23 -15 -37t-37 -14h-307v-635h461q26 0 40.5 -14.5t14.5 -36.5t-14 -36.5t-37 -14.5h-704q-22 0 -37 14.5t-15 36.5z" />
<glyph unicode="&#xa5;" horiz-adv-x="1155" d="M102 1362q0 25 15.5 40t40.5 15q30 0 47 -24l377 -637l368 635q16 26 47 26q25 0 40.5 -15t15.5 -40q0 -17 -6 -27q-69 -117 -190.5 -316.5t-170.5 -281.5h297q23 0 38 -16t15 -39q0 -24 -14.5 -38.5t-38.5 -14.5h-348v-187h348q23 0 38 -15t15 -40q0 -23 -15 -38 t-38 -15h-348v-279q0 -23 -15 -39t-38 -16q-24 0 -40 16t-16 39v279h-354q-22 3 -36.5 17.5t-14.5 37.5q0 22 15 37.5t38 15.5h352v187h-354q-51 7 -51 55q0 21 15 37t38 16h297q-316 521 -360 594q-9 27 -9 31z" />
<glyph unicode="&#xa6;" horiz-adv-x="313" d="M102 -63v632q0 23 15.5 38.5t40.5 15.5q23 0 38 -15.5t15 -38.5v-635q-3 -23 -18 -38t-37 -15t-38 16.5t-16 39.5zM102 831v631q0 25 15.5 39.5t40.5 14.5q24 0 38.5 -15t14.5 -39v-633q-3 -24 -17.5 -38.5t-37.5 -14.5q-22 0 -38 15.5t-16 39.5z" />
<glyph unicode="&#xa7;" horiz-adv-x="960" d="M102 551q0 154 123 219q-123 63 -123 221q0 264 349 264h313q25 0 40 -14t15 -37q0 -22 -14.5 -36.5t-36.5 -14.5h-317q-236 0 -236 -158q0 -83 57 -120.5t193 -55.5l78 -10q315 -40 315 -279q0 -155 -104 -233q104 -74 104 -207q0 -83 -27.5 -142t-80.5 -92t-120.5 -48 t-156.5 -15h-289q-22 0 -36.5 14.5t-14.5 36.5t14.5 37t36.5 15h289q132 0 202 44t70 148q0 73 -57.5 118.5t-163.5 59.5l-88 10q-167 18 -250.5 80t-83.5 195zM215 555q0 -84 57.5 -121t192.5 -53l78 -10q29 -3 86 -17q116 41 116 174q0 73 -57.5 119t-163.5 58l-88 10 q-221 -3 -221 -160z" />
<glyph unicode="&#xa8;" horiz-adv-x="649" d="M102 1309v53q0 24 15 39.5t39 15.5q25 0 40 -15t15 -40v-53q0 -23 -15.5 -38.5t-39.5 -15.5q-23 0 -38.5 15.5t-15.5 38.5zM438 1309v53q0 25 14.5 40t39.5 15q24 0 39.5 -15.5t15.5 -39.5v-53q0 -23 -16 -38.5t-39 -15.5q-24 0 -39 15t-15 39z" />
<glyph unicode="&#xa9;" horiz-adv-x="1251" d="M102 874q0 149 67.5 273.5t187.5 197t268 72.5t268.5 -72.5t188 -197t67.5 -273.5t-67.5 -273t-188 -196.5t-268.5 -72.5t-268 72.5t-187.5 196.5t-67.5 273zM205 874q0 -120 54 -220.5t151 -160t215 -59.5q180 0 301 128.5t121 311.5t-121 312t-301 129 q-118 0 -215 -59.5t-151 -160.5t-54 -221zM391 872q0 77 10 132t34.5 100.5t72 68.5t117.5 23h112q22 0 36.5 -14.5t14.5 -36.5q0 -23 -14.5 -37t-36.5 -14h-112q-36 0 -60 -10.5t-38 -27t-21.5 -47t-9.5 -60t-2 -77.5q0 -113 26.5 -165t104.5 -52h112q22 0 36.5 -14 t14.5 -37q0 -22 -14.5 -36.5t-36.5 -14.5h-112q-132 0 -183 81.5t-51 237.5z" />
<glyph unicode="&#xaa;" horiz-adv-x="692" d="M102 893q0 80 56.5 136t138.5 56h186v66q0 42 -20 70t-57 28h-216q-25 0 -39 13t-14 36q0 24 14.5 39t38.5 15h216q82 0 133 -56t51 -143v-371q0 -35 -23.5 -60.5t-58.5 -25.5h-211q-82 0 -138.5 57t-56.5 140zM209 893q0 -37 26 -64.5t62 -27.5h186v178h-186 q-37 0 -62.5 -25.5t-25.5 -60.5z" />
<glyph unicode="&#xab;" d="M102 553q0 45 39 80l248 190q15 11 31 11q22 0 36.5 -15t14.5 -37q0 -21 -18 -39l-256 -190l254 -199q20 -17 20 -41q0 -20 -14.5 -34.5t-36.5 -14.5q-17 0 -33 12q-1 0 -50.5 42.5t-111.5 94.5t-86 70q-37 30 -37 70zM508 553q0 45 39 80l248 190q15 11 30 11 q22 0 37 -15t15 -37q0 -20 -19 -39l-256 -190l254 -199q21 -18 21 -41q0 -20 -15 -34.5t-37 -14.5q-16 0 -32 12q-193 166 -248 207q-37 30 -37 70z" />
<glyph unicode="&#xac;" horiz-adv-x="1705" />
<glyph unicode="&#xad;" horiz-adv-x="872" d="M102 537q0 20 16.5 35.5t39.5 15.5h559q24 0 38.5 -14.5t14.5 -38.5q0 -25 -14 -39.5t-39 -14.5h-561q-23 3 -38.5 17.5t-15.5 38.5z" />
<glyph unicode="&#xae;" horiz-adv-x="1251" d="M102 874q0 149 67.5 273.5t187.5 197t268 72.5t268.5 -72.5t188 -197t67.5 -273.5t-67.5 -273t-188 -196.5t-268.5 -72.5t-268 72.5t-187.5 196.5t-67.5 273zM205 874q0 -120 54 -220.5t151 -160t215 -59.5q180 0 301 128.5t121 311.5t-121 312t-301 129 q-118 0 -215 -59.5t-151 -160.5t-54 -221zM403 594v526q0 35 24.5 58.5t59.5 23.5h117q135 0 190.5 -44t55.5 -152q0 -147 -109 -193q15 -34 48 -98.5t49 -98.5q6 -18 6 -22q0 -22 -14.5 -36.5t-36.5 -14.5q-28 0 -45 28l-117 230h-125v-207q0 -22 -14 -36.5t-37 -14.5 q-22 0 -37 14.5t-15 36.5zM506 903h139q55 0 79 23t24 80q0 53 -33 73.5t-107 20.5h-102v-197z" />
<glyph unicode="&#xaf;" horiz-adv-x="1705" />
<glyph unicode="&#xb0;" horiz-adv-x="780" d="M102 1130q0 129 79.5 208t207.5 79q129 0 209 -79t80 -208t-80 -207.5t-209 -78.5q-128 0 -207.5 78.5t-79.5 207.5zM209 1130q0 -83 49 -133.5t131 -50.5q83 0 134.5 50.5t51.5 133.5t-51.5 134t-134.5 51q-82 0 -131 -51t-49 -134z" />
<glyph unicode="&#xb1;" horiz-adv-x="1085" d="M102 213q0 21 15.5 37t38.5 16h774q24 0 38.5 -15.5t14.5 -39.5q0 -25 -14 -39t-39 -14h-776q-23 3 -37.5 17t-14.5 38zM102 702q0 22 15.5 38t38.5 16h325v221q3 22 19.5 36.5t38.5 14.5t36.5 -13.5t14.5 -35.5v-223h340q24 0 38.5 -15.5t14.5 -40.5q0 -24 -14.5 -38.5 t-38.5 -14.5h-340v-227q-3 -24 -17.5 -38.5t-37.5 -14.5q-21 0 -37.5 15.5t-16.5 39.5v225h-327q-23 3 -37.5 18t-14.5 37z" />
<glyph unicode="&#xb2;" horiz-adv-x="684" d="M102 625q0 15 19 45l239 225q44 40 66.5 74t22.5 80v26q0 43 -35 67.5t-84 24.5h-168q-20 0 -36.5 17t-16.5 37t16.5 36.5t36.5 16.5h168q98 0 160.5 -53t62.5 -146v-26q0 -75 -28.5 -124.5t-86.5 -105.5l-159 -149h249q21 0 37.5 -17.5t16.5 -36.5q0 -21 -16.5 -37 t-37.5 -16h-366q-23 0 -41.5 18.5t-18.5 43.5z" />
<glyph unicode="&#xb3;" horiz-adv-x="659" d="M102 621q0 16 17 33.5t39 17.5h202q38 0 64.5 27t26.5 71q0 46 -26.5 76.5t-64.5 30.5h-122q-26 0 -41 15t-15 40q0 20 15 35.5t39 15.5h131q36 0 60 24.5t24 63.5q0 42 -26 70t-65 28h-202q-23 0 -39.5 16.5t-16.5 39.5q0 18 17 34.5t39 16.5h202q85 0 141 -58.5 t56 -146.5q0 -90 -63 -143q63 -66 63 -158q0 -91 -56 -148t-141 -57h-202q-24 0 -40 16t-16 40z" />
<glyph unicode="&#xb4;" horiz-adv-x="632" d="M102 1163q0 34 33 47l322 154q8 4 20 4q33 0 49 -29q4 -8 4 -22q0 -31 -28 -49l-322 -150q-11 -8 -26 -8q-31 0 -48 35q-4 6 -4 18z" />
<glyph unicode="&#xb6;" horiz-adv-x="1161" d="M102 877q0 50 10.5 101.5t35.5 104t61.5 93.5t93 66.5t125.5 25.5h571q27 0 43.5 -15.5t16.5 -40.5q0 -24 -15.5 -39.5t-39.5 -15.5h-113v-1421q0 -26 -16 -43t-39 -17q-24 0 -40 16t-16 40v1425h-143v-1425q0 -23 -15.5 -39.5t-37.5 -16.5q-23 0 -38.5 16.5t-15.5 39.5 v803h-106q-135 0 -228.5 92.5t-93.5 249.5z" />
<glyph unicode="&#xb7;" horiz-adv-x="321" d="M102 596v80q0 24 17 41.5t43 17.5q23 0 40 -18t17 -41v-76q0 -27 -16.5 -45t-40.5 -18q-26 0 -43 17t-17 42z" />
<glyph unicode="&#xb8;" horiz-adv-x="450" d="M102 -289q0 20 14 33.5t34 13.5h55q25 0 31 9.5t6 42.5q0 24 -4 33t-17 10h-8q-32 0 -53 20.5t-21 52.5v133h105v-112q58 -6 81 -36t23 -101q0 -84 -29.5 -115t-111.5 -31h-53q-23 0 -37.5 12.5t-14.5 34.5z" />
<glyph unicode="&#xb9;" horiz-adv-x="499" d="M102 1108q0 29 23 45l162 109q28 12 41 12q30 0 49.5 -19t19.5 -51v-583q0 -25 -15.5 -40.5t-39.5 -15.5q-21 0 -37 15t-16 38v517q-16 -11 -50.5 -33t-52.5 -35q-16 -12 -28 -12q-24 0 -40 16t-16 37z" />
<glyph unicode="&#xba;" horiz-adv-x="757" d="M102 1028q0 180 67.5 252t211.5 72t209 -71.5t65 -252.5q0 -183 -65 -257.5t-209 -74.5q-143 0 -211 75t-68 257zM215 1028q0 -133 37 -179t129 -46q90 0 126 46t36 179q0 130 -35.5 172.5t-126.5 42.5q-62 0 -96 -16t-52 -63t-18 -136z" />
<glyph unicode="&#xbb;" d="M102 313q0 23 21 41l233 197l-235 192q-19 19 -19 39q0 22 15 37t37 15q17 0 28 -11l250 -190q39 -35 39 -80q0 -40 -37 -70q-24 -18 -86 -70t-112 -95l-50 -42q-20 -12 -32 -12q-22 0 -37 14.5t-15 34.5zM508 313q0 24 20 41l234 197l-236 192q-18 18 -18 39 q0 22 14.5 37t36.5 15q18 0 29 -11l250 -190q39 -35 39 -80q0 -40 -37 -70q-24 -18 -86 -70t-112 -95l-50 -42q-20 -12 -33 -12q-22 0 -36.5 14.5t-14.5 34.5z" />
<glyph unicode="&#xbc;" horiz-adv-x="1333" d="M102 1108q0 10 9 21t51 43.5t125 89.5q28 12 41 12q31 0 50 -19t19 -51v-583q0 -25 -15.5 -40.5t-39.5 -15.5q-21 0 -37 15t-16 38v517q-16 -11 -50.5 -33t-52.5 -35q-16 -12 -28 -12q-24 0 -40 16t-16 37zM303 57q0 7 8 31l516 1153q16 37 52 37q2 0 20 -6 q33 -11 33 -49q0 -15 -4 -23l-520 -1167q-24 -33 -50 -33q-13 0 -22 6q-33 13 -33 51zM711 229q0 15 8 39l162 406q3 14 18.5 25.5t32.5 11.5q23 0 39 -14t16 -38q0 -10 -2 -16l-166 -403h199v118q0 23 15.5 39.5t37.5 16.5q23 0 39 -16.5t16 -37.5v-120h50q24 0 39.5 -15 t15.5 -39q0 -23 -16 -38t-39 -15h-50v-78q0 -23 -16 -39t-39 -16q-22 0 -37.5 15.5t-15.5 37.5v80h-211q-41 0 -68.5 28t-27.5 68z" />
<glyph unicode="&#xbd;" horiz-adv-x="1411" d="M102 1108q0 27 25 45l160 109q28 12 43 12q30 0 48.5 -19t18.5 -51v-583q0 -25 -15 -40.5t-40 -15.5q-21 0 -37 15t-16 38v517q-17 -13 -51 -34t-52 -34q-12 -12 -28 -12q-23 0 -39.5 16t-16.5 37zM303 57q0 7 8 31l516 1153q19 37 52 37q4 0 22 -6q33 -13 33 -49 q0 -11 -6 -23l-520 -1167q-24 -33 -50 -33q-14 0 -20 6q-35 12 -35 51zM827 61q0 11 21 45l239 226q29 27 44 44.5t29 47t14 61.5v27q0 43 -35 67.5t-84 24.5h-166q-21 0 -37 16t-16 37t16 37.5t37 16.5h166q98 0 160.5 -53t62.5 -146v-27q0 -75 -28 -124t-87 -105 l-159 -150h251q20 0 37 -17t17 -36q0 -21 -17 -37t-37 -16h-366q-25 0 -43.5 18t-18.5 43z" />
<glyph unicode="&#xbe;" horiz-adv-x="1460" d="M102 621q0 16 17 33.5t39 17.5h202q38 0 64.5 27t26.5 71q0 46 -26.5 76.5t-64.5 30.5h-122q-26 0 -41 15t-15 40q0 20 15 35.5t39 15.5h131q36 0 60 24.5t24 63.5q0 42 -26 70t-65 28h-202q-23 0 -39.5 16.5t-16.5 39.5q0 18 17 34.5t39 16.5h202q84 0 139.5 -58.5 t55.5 -146.5q0 -91 -61 -143q61 -64 61 -158q0 -91 -55.5 -148t-139.5 -57h-202q-24 0 -40 16t-16 40zM428 57q0 7 8 31l516 1153q19 37 52 37q2 0 20 -6q35 -12 35 -49q0 -11 -6 -23l-521 -1167q-24 -33 -49 -33q-13 0 -22 6q-33 13 -33 51zM838 229q0 15 8 39l162 406 q3 14 18.5 25.5t32.5 11.5q23 0 39 -14t16 -38q0 -10 -2 -16l-166 -403h199v118q0 23 15.5 39.5t37.5 16.5q23 0 39 -16.5t16 -37.5v-120h50q24 0 39.5 -15t15.5 -39q0 -23 -16 -38t-39 -15h-50v-78q0 -23 -16 -39t-39 -16q-22 0 -37.5 15.5t-15.5 37.5v80h-211 q-41 0 -68.5 28t-27.5 68zM938 223q2 2 2 4z" />
<glyph unicode="&#xbf;" horiz-adv-x="933" d="M102 25q0 88 38 158.5t118 144.5l127 112q90 83 90 156v45q0 27 14.5 42t38.5 15q25 0 39.5 -14t14.5 -39v-49q0 -53 -17 -95t-39 -67t-65 -65l-129 -119q-115 -106 -115 -225t71 -181.5t210 -62.5h276q26 0 41.5 -14t15.5 -39q0 -21 -15.5 -37.5t-37.5 -16.5h-280 q-188 0 -292 90t-104 261zM471 950v82q0 26 16.5 44t38.5 18q24 0 42 -18t18 -40v-86q0 -22 -17.5 -38.5t-42.5 -16.5q-22 0 -38.5 16.5t-16.5 38.5z" />
<glyph unicode="&#xc0;" horiz-adv-x="1286" d="M102 53q0 13 2 19q68 228 196.5 648.5t180.5 594.5q15 53 60 86t102 33q58 0 102.5 -33t59.5 -86l377 -1249q0 -1 1 -6.5t1 -6.5q0 -21 -16.5 -37t-39.5 -16q-14 0 -29 12t-22 25l-125 391h-622l-119 -391q-6 -15 -21.5 -26t-33.5 -11q-20 0 -37 16.5t-17 36.5zM365 537 h557l-226 743q-8 16 -23.5 28.5t-29.5 12.5t-29.5 -13t-23.5 -28q-147 -491 -225 -743zM426 1741q0 14 4 22q16 31 49 31l25 -6l14 -6q14 -7 132 -65t175 -83q33 -16 33 -49q0 -10 -6 -22q-16 -31 -47 -31q-14 0 -25 8l-327 152q-27 19 -27 49z" />
<glyph unicode="&#xc1;" horiz-adv-x="1286" d="M102 53q0 13 2 19q68 228 196.5 648.5t180.5 594.5q15 53 60 86t102 33q58 0 102.5 -33t59.5 -86l377 -1249q0 -1 1 -6.5t1 -6.5q0 -21 -16.5 -37t-39.5 -16q-14 0 -29 12t-22 25l-125 391h-622l-119 -391q-6 -15 -21.5 -26t-33.5 -11q-20 0 -37 16.5t-17 36.5zM365 537 h557l-226 743q-8 16 -23.5 28.5t-29.5 12.5t-29.5 -13t-23.5 -28q-147 -491 -225 -743zM426 1589q0 32 31 49l327 156q8 4 19 4q35 0 51 -31q4 -8 4 -22q0 -31 -29 -49l-325 -152q-11 -8 -27 -8q-33 0 -47 35q-4 8 -4 18z" />
<glyph unicode="&#xc2;" horiz-adv-x="1286" d="M102 53q0 13 2 19q68 228 196.5 648.5t180.5 594.5q15 53 60 86t102 33q58 0 102.5 -33t59.5 -86l377 -1249q0 -1 1 -6.5t1 -6.5q0 -21 -16.5 -37t-39.5 -16q-14 0 -29 12t-22 25l-125 391h-622l-119 -391q-6 -15 -21.5 -26t-33.5 -11q-20 0 -37 16.5t-17 36.5zM365 537 h557l-226 743q-8 16 -23.5 28.5t-29.5 12.5t-29.5 -13t-23.5 -28q-147 -491 -225 -743zM393 1585q0 20 13 33l157 176q35 39 80 39q39 0 70 -35l166 -180q12 -20 12 -33q0 -22 -14.5 -36.5t-34.5 -14.5q-28 0 -43 18l-156 168l-162 -170q-16 -16 -37 -16q-22 0 -36.5 14.5 t-14.5 36.5z" />
<glyph unicode="&#xc3;" horiz-adv-x="1286" d="M102 53q0 13 2 19q68 228 196.5 648.5t180.5 594.5q15 53 60 86t102 33q58 0 102.5 -33t59.5 -86l377 -1249q0 -1 1 -6.5t1 -6.5q0 -21 -16.5 -37t-39.5 -16q-14 0 -29 12t-22 25l-125 391h-622l-119 -391q-6 -15 -21.5 -26t-33.5 -11q-20 0 -37 16.5t-17 36.5zM332 1620 q0 21 20 41q93 86 170 86q81 0 166 -64l6 -4l11 -8q49 -29 73 -29q13 0 80 54q16 16 37 16q23 0 40 -18t17 -41q0 -19 -14 -37q-98 -90 -160 -90q-33 0 -64 10.5t-48.5 21t-44.5 29.5q-2 1 -11 8t-11.5 8.5t-10.5 7t-11 7l-10 5t-11.5 5t-11 3.5t-12.5 2.5t-12 0.5 q-33 0 -92 -55q-17 -14 -41 -14t-39.5 15.5t-15.5 39.5zM365 537h557l-226 743q-8 16 -23.5 28.5t-29.5 12.5t-29.5 -13t-23.5 -28q-147 -491 -225 -743z" />
<glyph unicode="&#xc4;" horiz-adv-x="1286" d="M102 53q0 13 2 19q68 228 196.5 648.5t180.5 594.5q15 53 60 86t102 33q58 0 102.5 -33t59.5 -86l377 -1249q0 -1 1 -6.5t1 -6.5q0 -21 -16.5 -37t-39.5 -16q-14 0 -29 12t-22 25l-125 391h-622l-119 -391q-6 -15 -21.5 -26t-33.5 -11q-20 0 -37 16.5t-17 36.5zM365 537 h557l-226 743q-8 16 -23.5 28.5t-29.5 12.5t-29.5 -13t-23.5 -28q-147 -491 -225 -743zM420 1589v56q0 24 14.5 39.5t38.5 15.5t39.5 -15.5t15.5 -39.5v-56q0 -23 -15 -38t-40 -15q-24 0 -38.5 14.5t-14.5 38.5zM758 1589v56q0 23 15 39t38 16q25 0 41 -16t16 -39v-56 q0 -23 -16 -38t-41 -15q-23 0 -38 15t-15 38z" />
<glyph unicode="&#xc5;" horiz-adv-x="1286" d="M102 53q0 13 2 19q68 228 196.5 648.5t180.5 594.5q15 53 60 86t102 33q58 0 102.5 -33t59.5 -86l377 -1249q0 -1 1 -6.5t1 -6.5q0 -21 -16.5 -37t-39.5 -16q-14 0 -29 12t-22 25l-125 391h-622l-119 -391q-6 -15 -21.5 -26t-33.5 -11q-20 0 -37 16.5t-17 36.5zM365 537 h557l-226 743q-8 16 -23.5 28.5t-29.5 12.5t-29.5 -13t-23.5 -28q-147 -491 -225 -743zM444 1714q0 82 57.5 139.5t141.5 57.5q82 0 139.5 -57.5t57.5 -139.5q0 -84 -57.5 -141t-139.5 -57q-85 0 -142 56.5t-57 141.5zM543 1714q0 -44 29 -74t73 -30q41 0 69.5 30t28.5 74 q0 42 -28.5 71.5t-69.5 29.5q-44 0 -73 -29.5t-29 -71.5z" />
<glyph unicode="&#xc6;" horiz-adv-x="1579" d="M102 53q0 13 2 19q68 228 196.5 648.5t180.5 594.5q15 53 60 86t102 33h774q26 0 43 -16t17 -40t-16 -39.5t-40 -15.5h-688v-522h565q26 0 43 -16t17 -40q0 -25 -16 -41t-39 -16h-570v-577h684q26 0 43 -15.5t17 -40.5q0 -23 -16.5 -39t-39.5 -16h-706q-40 0 -66 26 t-26 66v336h-291l-121 -391q-6 -15 -21.5 -26t-33.5 -11q-20 0 -37 16.5t-17 36.5zM365 537h258v778q-16 -9 -33 -35z" />
<glyph unicode="&#xc7;" horiz-adv-x="1091" d="M102 483v455q0 259 124 377.5t358 118.5h352q21 0 37 -16.5t16 -37.5q0 -22 -15.5 -38.5t-37.5 -16.5h-352q-369 0 -369 -387v-455q0 -168 97 -272.5t272 -104.5h348q24 0 40.5 -15.5t16.5 -37.5q0 -21 -16 -37t-37 -16h-406v-53q58 -6 81.5 -37.5t23.5 -102.5 q0 -86 -28.5 -116.5t-112.5 -30.5h-54q-51 0 -51 47q0 22 12.5 34.5t34.5 12.5h56q25 0 30.5 10t5.5 43q0 24 -3 33t-15 10h-10q-32 0 -54 22t-22 54v94q-157 39 -239.5 160.5t-82.5 302.5z" />
<glyph unicode="&#xc8;" horiz-adv-x="1058" d="M102 92v1249q0 39 27 66t66 27h702q27 0 43 -16t16 -40q0 -25 -15 -40t-40 -15h-686v-522h563q26 0 43 -16t17 -40q0 -25 -16 -41t-40 -16h-567v-577h682q27 0 43 -15.5t16 -40.5q0 -24 -15.5 -39.5t-39.5 -15.5h-706q-39 0 -66 26.5t-27 65.5zM270 1745q0 14 4 22 q16 31 50 31l24 -6q299 -144 322 -154q32 -16 32 -49q0 -10 -6 -22q-16 -31 -45 -31q-15 0 -26 8l-326 152q-29 18 -29 49z" />
<glyph unicode="&#xc9;" horiz-adv-x="1058" d="M102 92v1249q0 39 27 66t66 27h702q27 0 43 -16t16 -40q0 -25 -15 -40t-40 -15h-686v-522h563q26 0 43 -16t17 -40q0 -25 -16 -41t-40 -16h-567v-577h682q27 0 43 -15.5t16 -40.5q0 -24 -15.5 -39.5t-39.5 -15.5h-706q-39 0 -66 26.5t-27 65.5zM270 1587q0 33 33 49 l326 156q8 4 20 4q33 0 49 -31q4 -8 4 -22q0 -31 -28 -49l-326 -152q-11 -8 -26 -8q-31 0 -48 35q-4 8 -4 18z" />
<glyph unicode="&#xca;" horiz-adv-x="1058" d="M102 92v1249q0 39 27 66t66 27h702q27 0 43 -16t16 -40q0 -25 -15 -40t-40 -15h-686v-522h563q26 0 43 -16t17 -40q0 -25 -16 -41t-40 -16h-567v-577h682q27 0 43 -15.5t16 -40.5q0 -24 -15.5 -39.5t-39.5 -15.5h-706q-39 0 -66 26.5t-27 65.5zM240 1585q0 23 10 33 l158 176q35 39 79 39q39 0 70 -35l168 -180q12 -20 12 -33q0 -21 -15 -36t-36 -15q-26 0 -41 18l-158 168l-161 -170q-16 -16 -35 -16q-23 0 -37 14.5t-14 36.5z" />
<glyph unicode="&#xcb;" horiz-adv-x="1058" d="M102 92v1249q0 39 27 66t66 27h702q27 0 43 -16t16 -40q0 -25 -15 -40t-40 -15h-686v-522h563q26 0 43 -16t17 -40q0 -25 -16 -41t-40 -16h-567v-577h682q27 0 43 -15.5t16 -40.5q0 -24 -15.5 -39.5t-39.5 -15.5h-706q-39 0 -66 26.5t-27 65.5zM264 1589v56q0 23 15 39 t38 16q25 0 41.5 -16t16.5 -39v-56q0 -23 -16.5 -38t-41.5 -15q-23 0 -38 15t-15 38zM602 1589v56q0 24 15.5 39.5t39.5 15.5q23 0 39.5 -16t16.5 -39v-56q0 -23 -16 -38t-40 -15q-25 0 -40 15t-15 38z" />
<glyph unicode="&#xcc;" horiz-adv-x="636" d="M102 1741q0 14 4 22q16 31 50 31l24 -6l15 -6q14 -7 132 -65t175 -83q33 -16 33 -49q0 -8 -7 -22q-16 -31 -45 -31q-15 0 -26 8l-326 152q-29 18 -29 49zM262 55v1323q0 24 15.5 40t39.5 16t40 -17t16 -43v-1315q0 -26 -16 -42.5t-40 -16.5t-39.5 15.5t-15.5 39.5z" />
<glyph unicode="&#xcd;" horiz-adv-x="636" d="M102 1589q0 32 31 49l328 156q8 4 20 4q33 0 49 -31q5 -10 5 -22q0 -31 -29 -49l-326 -152q-11 -8 -26 -8q-31 0 -48 35q-4 8 -4 18zM262 55v1323q0 24 15.5 40t39.5 16t40 -17t16 -43v-1315q0 -26 -16 -42.5t-40 -16.5t-39.5 15.5t-15.5 39.5z" />
<glyph unicode="&#xce;" horiz-adv-x="702" d="M102 1583q0 20 13 33l157 176q35 39 80 39q39 0 70 -35l166 -180q12 -20 12 -33q0 -22 -14.5 -36.5t-34.5 -14.5q-29 0 -41 18l-158 168l-162 -170q-16 -16 -36 -16q-22 0 -37 14.5t-15 36.5zM295 55v1323q0 24 16.5 40t40.5 16t40 -17t16 -43v-1315q0 -26 -16 -42.5 t-40 -16.5q-25 0 -41 16t-16 39z" />
<glyph unicode="&#xcf;" horiz-adv-x="653" d="M102 1585v55q0 23 15.5 39.5t38.5 16.5q24 0 39.5 -16t15.5 -40v-55q0 -23 -15 -38t-40 -15q-23 0 -38.5 15t-15.5 38zM270 55v1323q0 24 16 40t40 16q23 0 39 -17t16 -43v-1315q0 -26 -15.5 -42.5t-39.5 -16.5t-40 16t-16 39zM440 1585v55q0 24 16 40t40 16 q23 0 39 -16.5t16 -39.5v-55q0 -23 -16 -38t-39 -15q-25 0 -40.5 15t-15.5 38z" />
<glyph unicode="&#xd0;" horiz-adv-x="1509" d="M102 698q0 21 16.5 37.5t37.5 16.5h278v589q0 39 27 66t65 27h400q233 0 357 -118.5t124 -377.5v-455q0 -220 -127 -351.5t-354 -131.5h-400q-39 0 -65.5 26.5t-26.5 65.5v553h-274q-24 0 -41 16t-17 37zM547 106h379q174 0 270 104.5t96 272.5v455q0 387 -366 387h-379 v-573h414q25 0 41 -16t16 -38q0 -21 -16 -37t-37 -16h-418v-539z" />
<glyph unicode="&#xd1;" horiz-adv-x="1241" d="M102 55v1225q0 64 45 109t109 45q45 0 82.5 -25t56.5 -66l551 -1206q11 -26 39 -26q15 0 26.5 12t14.5 31v1224q0 23 16 39.5t39 16.5q25 0 41.5 -16.5t16.5 -39.5v-1224q0 -64 -44.5 -109t-109.5 -45q-45 0 -82.5 25t-56.5 65l-551 1206q-12 27 -39 27q-19 0 -31 -12 t-12 -31v-1225q0 -24 -15.5 -39.5t-39.5 -15.5q-23 0 -39.5 16t-16.5 39zM309 1620q0 20 21 41q93 86 170 86q81 0 166 -64l6 -4q55 -37 84 -37q13 0 80 54q16 16 36 16q23 0 40.5 -18t17.5 -41q0 -22 -15 -37q-98 -90 -159 -90q-71 0 -162 63q-2 2 -15 11t-16.5 11t-14 8.5 t-16.5 8.5t-15 4t-17 2q-35 0 -94 -55q-18 -14 -41 -14q-24 0 -40 15.5t-16 39.5z" />
<glyph unicode="&#xd2;" horiz-adv-x="1261" d="M102 483v455q0 259 124.5 377.5t357.5 118.5h94q234 0 357.5 -118.5t123.5 -377.5v-455q0 -221 -126.5 -352t-354.5 -131h-94q-227 0 -354.5 131.5t-127.5 351.5zM217 483q0 -168 96.5 -272.5t270.5 -104.5h94q175 0 272 104.5t97 272.5v455q0 387 -369 387h-94 q-367 0 -367 -387v-455zM416 1741q0 14 4 22q16 31 49 31l25 -6l14 -6q14 -7 132 -65t175 -83q33 -16 33 -49q0 -10 -6 -22q-16 -31 -47 -31q-14 0 -25 8l-328 152q-26 19 -26 49z" />
<glyph unicode="&#xd3;" horiz-adv-x="1261" d="M102 483v455q0 259 124.5 377.5t357.5 118.5h94q234 0 357.5 -118.5t123.5 -377.5v-455q0 -221 -126.5 -352t-354.5 -131h-94q-227 0 -354.5 131.5t-127.5 351.5zM217 483q0 -168 96.5 -272.5t270.5 -104.5h94q175 0 272 104.5t97 272.5v455q0 387 -369 387h-94 q-367 0 -367 -387v-455zM416 1585q0 32 30 49l328 156q8 4 19 4q35 0 51 -31q4 -8 4 -22q0 -31 -29 -49l-325 -152q-11 -8 -27 -8q-30 0 -47 35q-4 8 -4 18z" />
<glyph unicode="&#xd4;" horiz-adv-x="1261" d="M102 483v455q0 259 124.5 377.5t357.5 118.5h94q234 0 357.5 -118.5t123.5 -377.5v-455q0 -221 -126.5 -352t-354.5 -131h-94q-227 0 -354.5 131.5t-127.5 351.5zM217 483q0 -168 96.5 -272.5t270.5 -104.5h94q175 0 272 104.5t97 272.5v455q0 387 -369 387h-94 q-367 0 -367 -387v-455zM383 1585q0 21 12 33l158 176q35 39 80 39q38 0 69 -35l166 -180q13 -22 13 -33q0 -21 -14.5 -36t-35.5 -15q-28 0 -40 18l-158 168l-162 -170q-16 -16 -37 -16q-22 0 -36.5 14.5t-14.5 36.5z" />
<glyph unicode="&#xd5;" horiz-adv-x="1261" d="M102 483v455q0 259 124.5 377.5t357.5 118.5h94q234 0 357.5 -118.5t123.5 -377.5v-455q0 -221 -126.5 -352t-354.5 -131h-94q-227 0 -354.5 131.5t-127.5 351.5zM217 483q0 -168 96.5 -272.5t270.5 -104.5h94q175 0 272 104.5t97 272.5v455q0 387 -369 387h-94 q-367 0 -367 -387v-455zM322 1618q0 21 20 41q93 86 170 86q81 0 166 -64l6 -4l10 -8q49 -29 74 -29q13 0 80 54q16 16 37 16q23 0 40 -18t17 -41q0 -19 -14 -37q-98 -90 -160 -90q-29 0 -67.5 16t-65.5 31.5t-29 15.5q-56 45 -96 45q-33 0 -92 -55q-17 -14 -41 -14 t-39.5 15.5t-15.5 39.5z" />
<glyph unicode="&#xd6;" horiz-adv-x="1261" d="M102 483v455q0 259 124.5 377.5t357.5 118.5h94q234 0 357.5 -118.5t123.5 -377.5v-455q0 -221 -126.5 -352t-354.5 -131h-94q-227 0 -354.5 131.5t-127.5 351.5zM217 483q0 -168 96.5 -272.5t270.5 -104.5h94q175 0 272 104.5t97 272.5v455q0 387 -369 387h-94 q-367 0 -367 -387v-455zM408 1587v55q0 24 15 40t38 16q24 0 39.5 -16t15.5 -40v-55q0 -23 -15 -38t-40 -15q-23 0 -38 15t-15 38zM745 1587v55q0 23 15.5 39.5t38.5 16.5q25 0 41 -16t16 -40v-55q0 -23 -16 -38t-41 -15q-23 0 -38.5 15t-15.5 38z" />
<glyph unicode="&#xd7;" horiz-adv-x="940" d="M102 201q0 25 17 39l274 274l-278 279q-13 13 -13 32q0 23 17 43q17 17 37 17q17 0 34 -17l279 -278l276 278q17 17 39 17q20 0 41 -21q13 -16 13 -35q0 -24 -15 -36l-278 -279l278 -278q13 -13 13 -39q0 -19 -13 -35q-17 -17 -39 -17q-24 0 -41 17l-274 274l-276 -274 q-19 -15 -39 -15t-35 15q-17 17 -17 39z" />
<glyph unicode="&#xd8;" horiz-adv-x="1261" d="M102 483v455q0 259 124.5 377.5t357.5 118.5h94q135 0 225 -37l76 170q19 39 51 39q2 0 23 -7q32 -11 32 -51q0 -4 -6 -22l-80 -183q160 -131 160 -405v-455q0 -221 -126.5 -352t-354.5 -131h-94q-103 0 -174 25l-70 -162q-12 -35 -49 -35q-14 0 -23 6q-35 12 -35 53 q0 5 7 23l67 158q-101 61 -153 168t-52 247zM217 483q0 -99 36 -179.5t103 -129.5q60 133 232 519.5t270 602.5q-77 29 -180 29h-94q-367 0 -367 -387v-455zM455 123q66 -17 129 -17h94q175 0 272 104.5t97 272.5v455q0 191 -97 295z" />
<glyph unicode="&#xd9;" horiz-adv-x="1185" d="M102 412v968q0 21 16.5 37.5t37.5 16.5t37 -16.5t16 -37.5v-968q0 -146 79 -231t189 -85h250q118 0 184 86t66 230v964q0 25 15.5 41.5t37.5 16.5q21 0 37 -16.5t16 -37.5v-968q0 -192 -96.5 -308t-263.5 -116h-244q-77 0 -144.5 27.5t-120 79.5t-82.5 133.5t-30 183.5z M377 1743q0 14 4 22q15 31 49 31l25 -6q314 -151 321 -154q33 -16 33 -49q0 -10 -6 -22q-15 -31 -45 -31q-16 0 -27 8l-325 152q-29 18 -29 49z" />
<glyph unicode="&#xda;" horiz-adv-x="1185" d="M102 412v968q0 21 16.5 37.5t37.5 16.5t37 -16.5t16 -37.5v-968q0 -146 79 -231t189 -85h250q118 0 184 86t66 230v964q0 25 15.5 41.5t37.5 16.5q21 0 37 -16.5t16 -37.5v-968q0 -192 -96.5 -308t-263.5 -116h-244q-77 0 -144.5 27.5t-120 79.5t-82.5 133.5t-30 183.5z M377 1589q0 33 33 49l325 156q8 4 21 4q34 0 49 -31q4 -8 4 -22q0 -31 -29 -49l-325 -152q-11 -8 -27 -8q-30 0 -47 35q-4 8 -4 18z" />
<glyph unicode="&#xdb;" horiz-adv-x="1185" d="M102 412v968q0 21 16.5 37.5t37.5 16.5t37 -16.5t16 -37.5v-968q0 -146 79 -231t189 -85h250q118 0 184 86t66 230v964q0 25 15.5 41.5t37.5 16.5q21 0 37 -16.5t16 -37.5v-968q0 -192 -96.5 -308t-263.5 -116h-244q-77 0 -144.5 27.5t-120 79.5t-82.5 133.5t-30 183.5z M344 1583q0 21 12 33l158 176q35 39 80 39q39 0 70 -35l167 -180q13 -22 13 -33q0 -21 -15 -36t-36 -15q-26 0 -41 18l-158 168l-162 -170q-16 -16 -35 -16q-23 0 -38 14.5t-15 36.5z" />
<glyph unicode="&#xdc;" horiz-adv-x="1185" d="M102 412v968q0 21 16.5 37.5t37.5 16.5t37 -16.5t16 -37.5v-968q0 -146 79 -231t189 -85h250q118 0 184 86t66 230v964q0 25 15.5 41.5t37.5 16.5q21 0 37 -16.5t16 -37.5v-968q0 -192 -96.5 -308t-263.5 -116h-244q-77 0 -144.5 27.5t-120 79.5t-82.5 133.5t-30 183.5z M369 1591v56q0 23 15 39t38 16q25 0 41 -16t16 -39v-56q0 -23 -16 -38t-41 -15q-23 0 -38 15t-15 38zM707 1591v56q0 24 15.5 39.5t39.5 15.5q23 0 39 -16t16 -39v-56q0 -23 -16 -38t-39 -15q-25 0 -40 15t-15 38z" />
<glyph unicode="&#xdd;" horiz-adv-x="1165" d="M102 1378q0 24 16 40t40 16q30 0 47 -27l381 -643l375 641q18 29 47 29q24 0 39.5 -16t15.5 -40q0 -18 -6 -28l-416 -697v-598q0 -24 -15.5 -39.5t-39.5 -15.5t-40 16t-16 39v598l-419 693q-9 27 -9 32zM367 1583q0 33 32 49l326 156q8 4 20 4q35 0 50 -31q4 -8 4 -22 q0 -31 -29 -49l-326 -152q-11 -8 -26 -8q-30 0 -47 35q-4 8 -4 18z" />
<glyph unicode="&#xde;" horiz-adv-x="1157" d="M102 55v1323q0 24 16 40t40 16t39.5 -16t15.5 -40v-188h438q194 0 299 -88.5t105 -257.5v-193q0 -176 -101.5 -281.5t-302.5 -105.5h-438v-209q0 -24 -15.5 -39.5t-39.5 -15.5t-40 16t-16 39zM213 373h438q145 0 219 76t74 202v191q0 118 -75.5 179.5t-217.5 61.5h-438 v-710z" />
<glyph unicode="&#xdf;" horiz-adv-x="1177" d="M102 55v873q0 256 123 372.5t355 116.5h69q154 0 262.5 -107.5t108.5 -260.5q0 -98 -42 -177t-120 -131q98 -48 157.5 -142t59.5 -208q0 -163 -115 -277t-278 -114h-311q-26 0 -42 15.5t-16 37.5q0 21 16.5 37t37.5 16h315q119 0 203 83.5t84 201.5q0 119 -84.5 204 t-202.5 85h-35q-21 0 -37 16t-16 37q0 20 16.5 36.5t36.5 16.5q109 0 187.5 77.5t78.5 185.5q0 109 -77.5 185.5t-186.5 76.5h-69q-365 0 -365 -383v-869q0 -25 -17 -42t-40 -17t-39.5 16t-16.5 39z" />
<glyph unicode="&#xe0;" horiz-adv-x="964" d="M102 293q0 122 86 208.5t209 86.5h357v149q0 87 -46 145t-124 58h-367q-26 0 -40.5 13.5t-14.5 37.5q0 22 14 36.5t37 14.5h371q122 0 200 -84.5t78 -214.5v-661q0 -35 -23.5 -58.5t-58.5 -23.5h-383q-123 0 -209 85t-86 208zM209 293q0 -77 55 -132t133 -55h357v377 h-357q-78 0 -133 -56t-55 -134zM303 1329q0 15 4 21q15 30 49 30l25 -6q32 -15 146 -70t171 -81q33 -17 33 -47q0 -13 -6 -25q-16 -29 -45 -29q-16 0 -27 8l-323 150q-27 19 -27 49z" />
<glyph unicode="&#xe1;" horiz-adv-x="964" d="M102 293q0 122 86 208.5t209 86.5h357v149q0 87 -46 145t-124 58h-367q-26 0 -40.5 13.5t-14.5 37.5q0 22 14 36.5t37 14.5h371q122 0 200 -84.5t78 -214.5v-661q0 -35 -23.5 -58.5t-58.5 -23.5h-383q-123 0 -209 85t-86 208zM209 293q0 -77 55 -132t133 -55h357v377 h-357q-78 0 -133 -56t-55 -134zM303 1178q0 30 31 47l323 153q8 4 21 4q34 0 49 -30q4 -6 4 -21q0 -31 -29 -49l-321 -149q-12 -9 -27 -9q-30 0 -47 33q-4 8 -4 21z" />
<glyph unicode="&#xe2;" horiz-adv-x="964" d="M102 293q0 122 86 208.5t209 86.5h357v149q0 87 -46 145t-124 58h-367q-26 0 -40.5 13.5t-14.5 37.5q0 22 14 36.5t37 14.5h371q122 0 200 -84.5t78 -214.5v-661q0 -35 -23.5 -58.5t-58.5 -23.5h-383q-123 0 -209 85t-86 208zM209 293q0 -77 55 -132t133 -55h357v377 h-357q-78 0 -133 -56t-55 -134zM272 1174q0 15 11 30l155 174q35 39 80 39q41 0 68 -35l166 -178q12 -20 12 -30q0 -22 -15 -37t-34 -15q-24 0 -41 17l-156 166l-160 -166q-17 -17 -34 -17q-23 0 -37.5 14.5t-14.5 37.5z" />
<glyph unicode="&#xe3;" horiz-adv-x="964" d="M102 293q0 122 86 208.5t209 86.5h357v149q0 87 -46 145t-124 58h-367q-26 0 -40.5 13.5t-14.5 37.5q0 22 14 36.5t37 14.5h371q122 0 200 -84.5t78 -214.5v-661q0 -35 -23.5 -58.5t-58.5 -23.5h-383q-123 0 -209 85t-86 208zM209 293q0 -77 55 -132t133 -55h357v377 h-357q-78 0 -133 -56t-55 -134zM211 1214q0 19 18 41q97 86 170 86q34 0 67.5 -11t51 -21.5t45.5 -30.5q55 -41 88 -41q14 0 80 53q15 15 37 15t39.5 -17.5t17.5 -40.5q0 -21 -16 -37q-92 -88 -158 -88q-73 0 -155 62l-9 6q-57 39 -90 39q-31 0 -92 -53q-17 -17 -39 -17 q-24 0 -39.5 15.5t-15.5 39.5z" />
<glyph unicode="&#xe4;" horiz-adv-x="964" d="M102 293q0 122 86 208.5t209 86.5h357v149q0 87 -46 145t-124 58h-367q-26 0 -40.5 13.5t-14.5 37.5q0 22 14 36.5t37 14.5h371q122 0 200 -84.5t78 -214.5v-661q0 -35 -23.5 -58.5t-58.5 -23.5h-383q-123 0 -209 85t-86 208zM209 293q0 -77 55 -132t133 -55h357v377 h-357q-78 0 -133 -56t-55 -134zM297 1178v53q0 23 15 39t38 16t39.5 -16t16.5 -39v-53q0 -24 -16 -39t-40 -15t-38.5 15t-14.5 39zM633 1178v53q0 24 14.5 39.5t38.5 15.5q23 0 38 -16t15 -39v-53q0 -24 -14.5 -39t-38.5 -15q-25 0 -39 14.5t-14 39.5z" />
<glyph unicode="&#xe5;" horiz-adv-x="964" d="M102 293q0 122 86 208.5t209 86.5h357v149q0 87 -46 145t-124 58h-367q-26 0 -40.5 13.5t-14.5 37.5q0 22 14 36.5t37 14.5h371q122 0 200 -84.5t78 -214.5v-661q0 -35 -23.5 -58.5t-58.5 -23.5h-383q-123 0 -209 85t-86 208zM209 293q0 -77 55 -132t133 -55h357v377 h-357q-78 0 -133 -56t-55 -134zM324 1309q0 82 55.5 138t138.5 56q82 0 138.5 -56t56.5 -138q0 -83 -56.5 -139t-138.5 -56q-83 0 -138.5 56t-55.5 139zM420 1309q0 -43 29 -73t71 -30q41 0 69.5 30t28.5 73q0 41 -28.5 70.5t-69.5 29.5q-42 0 -71 -29t-29 -71z" />
<glyph unicode="&#xe6;" horiz-adv-x="1634" d="M102 293q0 121 87 208t208 87h357v149q0 88 -45.5 145.5t-124.5 57.5h-367q-25 0 -40 14t-15 37q0 22 14.5 36.5t36.5 14.5h371q77 0 141.5 -41t101.5 -106q103 147 312 147q191 0 292 -101.5t101 -295.5v-96q0 -35 -23.5 -58.5t-58.5 -23.5h-588q3 -188 63 -276.5 t208 -88.5h313q24 0 39.5 -14.5t15.5 -36.5t-14.5 -36.5t-36.5 -14.5h-320q-177 0 -268 82q0 -35 -23.5 -58.5t-58.5 -23.5h-383q-122 0 -208.5 85.5t-86.5 207.5zM209 293q0 -77 55 -132t133 -55h357v377h-357q-78 0 -133 -56t-55 -134zM862 569h561v76q0 295 -284 295 q-129 0 -203 -80t-74 -215v-76z" />
<glyph unicode="&#xe7;" horiz-adv-x="886" d="M102 432v193q0 417 400 417h231q23 0 37 -14.5t14 -36.5q0 -23 -14 -37t-37 -14h-231q-293 0 -293 -315v-195q0 -160 74 -244t219 -84h231q23 0 37 -14.5t14 -36.5t-14 -36.5t-37 -14.5h-284v-53q58 -6 81 -36t23 -101q0 -84 -29.5 -115t-111.5 -31h-52q-51 0 -51 47 q0 21 13 34t34 13h56q23 0 28.5 9.5t5.5 42.5q0 24 -3 33t-15 10h-10q-32 0 -53 20.5t-21 52.5v94q-242 74 -242 412z" />
<glyph unicode="&#xe8;" horiz-adv-x="983" d="M102 485v160q0 185 108.5 291t276.5 106q191 0 292.5 -101.5t101.5 -295.5v-96q0 -35 -23.5 -58.5t-60.5 -23.5h-586q3 -188 62.5 -276.5t207.5 -88.5h314q24 0 38.5 -14.5t14.5 -36.5t-14 -36.5t-37 -14.5h-318q-110 0 -184 29t-116 92t-59.5 149.5t-17.5 214.5z M211 569h561v76q0 145 -71.5 220t-213.5 75q-129 0 -202.5 -80t-73.5 -215v-76zM272 1327q0 13 4 21q12 30 50 30l22 -6q16 -7 138.5 -65.5t181.5 -85.5q30 -15 30 -47q0 -13 -6 -25q-13 -29 -45 -29q-13 0 -24 8l-324 150q-27 17 -27 49z" />
<glyph unicode="&#xe9;" horiz-adv-x="983" d="M102 485v160q0 185 108.5 291t276.5 106q191 0 292.5 -101.5t101.5 -295.5v-96q0 -35 -23.5 -58.5t-60.5 -23.5h-586q3 -188 62.5 -276.5t207.5 -88.5h314q24 0 38.5 -14.5t14.5 -36.5t-14 -36.5t-37 -14.5h-318q-110 0 -184 29t-116 92t-59.5 149.5t-17.5 214.5z M211 569h561v76q0 145 -71.5 220t-213.5 75q-129 0 -202.5 -80t-73.5 -215v-76zM272 1178q0 32 31 47l324 153q8 4 18 4q37 0 49 -30q4 -8 4 -21q0 -33 -26 -49l-324 -149q-12 -9 -24 -9q-34 0 -48 33q-4 8 -4 21z" />
<glyph unicode="&#xea;" horiz-adv-x="983" d="M102 485v160q0 185 108.5 291t276.5 106q191 0 292.5 -101.5t101.5 -295.5v-96q0 -35 -23.5 -58.5t-60.5 -23.5h-586q3 -188 62.5 -276.5t207.5 -88.5h314q24 0 38.5 -14.5t14.5 -36.5t-14 -36.5t-37 -14.5h-318q-110 0 -184 29t-116 92t-59.5 149.5t-17.5 214.5z M211 569h561v76q0 145 -71.5 220t-213.5 75q-129 0 -202.5 -80t-73.5 -215v-76zM240 1167q0 19 12 31l156 174q35 39 79 39q37 0 68 -35l166 -178q12 -20 12 -31q0 -22 -14.5 -36.5t-34.5 -14.5q-26 0 -43 17l-154 165l-159 -168q-17 -14 -37 -14q-22 0 -36.5 14t-14.5 37z " />
<glyph unicode="&#xeb;" horiz-adv-x="983" d="M102 485v160q0 185 108.5 291t276.5 106q191 0 292.5 -101.5t101.5 -295.5v-96q0 -35 -23.5 -58.5t-60.5 -23.5h-586q3 -188 62.5 -276.5t207.5 -88.5h314q24 0 38.5 -14.5t14.5 -36.5t-14 -36.5t-37 -14.5h-318q-110 0 -184 29t-116 92t-59.5 149.5t-17.5 214.5z M211 569h561v76q0 145 -71.5 220t-213.5 75q-129 0 -202.5 -80t-73.5 -215v-76zM264 1178v53q0 24 14.5 39.5t38.5 15.5q23 0 39.5 -16t16.5 -39v-53q0 -24 -16 -39t-40 -15q-25 0 -39 14.5t-14 39.5zM598 1178v53q0 23 15 39t38 16q25 0 40.5 -16t15.5 -39v-53 q0 -25 -15.5 -39.5t-40.5 -14.5q-23 0 -38 15t-15 39z" />
<glyph unicode="&#xec;" horiz-adv-x="632" d="M102 1329q0 15 4 21q15 30 50 30l24 -6q16 -7 138.5 -65.5t181.5 -85.5q30 -17 30 -47q0 -13 -6 -25q-16 -29 -45 -29q-15 0 -26 8l-322 150q-29 18 -29 49zM262 55q0 -23 16 -39t39 -16q25 0 40.5 16.5t15.5 42.5v906q0 26 -15.5 42.5t-40.5 16.5q-23 0 -39 -16t-16 -39 v-914z" />
<glyph unicode="&#xed;" horiz-adv-x="632" d="M102 1174q0 30 33 47l322 153q8 4 20 4q34 0 49 -30q4 -6 4 -21q0 -31 -28 -49l-322 -150q-11 -8 -26 -8q-31 0 -48 33q-4 8 -4 21zM262 55q0 -23 16 -39t39 -16q25 0 40.5 16.5t15.5 42.5v906q0 26 -15.5 42.5t-40.5 16.5q-23 0 -39 -16t-16 -39v-914z" />
<glyph unicode="&#xee;" horiz-adv-x="696" d="M102 1176q0 15 11 30l155 174q35 39 80 39q41 0 68 -35l166 -178q12 -20 12 -30q0 -22 -15 -37t-34 -15q-24 0 -41 17l-156 166l-160 -166q-17 -17 -34 -17q-23 0 -37.5 14.5t-14.5 37.5zM262 55q0 -23 16 -39t39 -16q25 0 40.5 16.5t15.5 42.5v906q0 26 -15.5 42.5 t-40.5 16.5q-23 0 -39 -16t-16 -39v-914z" />
<glyph unicode="&#xef;" horiz-adv-x="649" d="M102 1176v53q0 23 15.5 39t38.5 16q24 0 39.5 -15.5t15.5 -39.5v-53q0 -25 -15 -39.5t-40 -14.5q-24 0 -39 15t-15 39zM262 55q0 -23 16 -39t39 -16q25 0 40.5 16.5t15.5 42.5v906q0 26 -15.5 42.5t-40.5 16.5q-23 0 -39 -16t-16 -39v-914zM438 1176v53q0 24 15 39.5 t39 15.5q23 0 39 -16t16 -39v-53q0 -24 -15.5 -39t-39.5 -15q-25 0 -39.5 14.5t-14.5 39.5z" />
<glyph unicode="&#xf0;" horiz-adv-x="1097" d="M102 399v86q0 359 430 359h349v24q0 151 -60 242l-176 -174q-16 -16 -37 -16q-23 0 -41 18q-14 19 -14 37q0 19 14 37l178 176q-87 65 -243 65h-301q-22 0 -38 16t-16 36q0 22 16 37.5t42 15.5h297q197 0 323 -90l76 75q15 15 39 15q25 0 37 -12q18 -18 18 -39t-18 -39 l-74 -74q92 -121 92 -326v-399q0 -246 -111 -357.5t-339 -111.5q-217 0 -330 108t-113 291zM215 399q0 -138 81.5 -215.5t248.5 -77.5q175 0 255.5 82.5t80.5 284.5v264h-344q-160 0 -241 -64t-81 -188v-86z" />
<glyph unicode="&#xf1;" d="M102 55v899q0 35 24.5 61.5t61.5 26.5h367q135 0 228.5 -92.5t93.5 -249.5v-645q0 -22 -16.5 -38.5t-39.5 -16.5t-38 16.5t-15 38.5v645q0 105 -62.5 172.5t-150.5 67.5h-344v-881q0 -26 -15.5 -42.5t-39.5 -16.5q-23 0 -38.5 16.5t-15.5 38.5zM178 1206q0 20 21 41 q97 86 170 86q77 0 163 -63q55 -41 89 -41q18 0 41 25t36 28q17 14 39 14t39 -17t17 -40q0 -22 -15 -37q-92 -88 -157 -88q-47 0 -82 16t-74 46l-8 6q-57 39 -90 39q-30 0 -93 -54q-16 -16 -41 -16q-23 0 -39 16t-16 39z" />
<glyph unicode="&#xf2;" horiz-adv-x="1011" d="M102 348v311q0 164 96.5 272.5t245.5 108.5h125q147 0 243.5 -109t96.5 -272v-311q0 -161 -96.5 -260.5t-243.5 -99.5h-125q-148 0 -245 99.5t-97 260.5zM211 348q0 -107 67 -182.5t166 -75.5h125q98 0 166 76t68 182v311q0 110 -69 194.5t-165 84.5h-125 q-97 0 -165 -84.5t-68 -194.5v-311zM291 1327q0 15 4 21q15 30 49 30l25 -6q24 -11 142.5 -68t176.5 -83q31 -17 31 -47q0 -13 -6 -25q-16 -29 -45 -29q-17 0 -25 8l-324 150q-28 18 -28 49z" />
<glyph unicode="&#xf3;" horiz-adv-x="1011" d="M102 348v311q0 164 96.5 272.5t245.5 108.5h125q147 0 243.5 -109t96.5 -272v-311q0 -161 -96.5 -260.5t-243.5 -99.5h-125q-148 0 -245 99.5t-97 260.5zM211 348q0 -107 67 -182.5t166 -75.5h125q98 0 166 76t68 182v311q0 110 -69 194.5t-165 84.5h-125 q-97 0 -165 -84.5t-68 -194.5v-311zM291 1171q0 31 33 48l323 153q6 4 19 4q34 0 49 -30q4 -6 4 -21q0 -30 -27 -49l-323 -150q-11 -8 -27 -8q-30 0 -47 33q-4 8 -4 20z" />
<glyph unicode="&#xf4;" horiz-adv-x="1011" d="M102 348v311q0 164 96.5 272.5t245.5 108.5h125q147 0 243.5 -109t96.5 -272v-311q0 -161 -96.5 -260.5t-243.5 -99.5h-125q-148 0 -245 99.5t-97 260.5zM211 348q0 -107 67 -182.5t166 -75.5h125q98 0 166 76t68 182v311q0 110 -69 194.5t-165 84.5h-125 q-97 0 -165 -84.5t-68 -194.5v-311zM260 1171q0 19 12 31l156 174q31 39 78 39q38 0 69 -35l166 -180q11 -18 11 -29q0 -23 -14.5 -37t-35.5 -14q-23 0 -40 17l-156 166l-160 -166q-14 -17 -35 -17q-22 0 -36.5 14t-14.5 37z" />
<glyph unicode="&#xf5;" horiz-adv-x="1011" d="M102 348v311q0 164 96.5 272.5t245.5 108.5h125q147 0 243.5 -109t96.5 -272v-311q0 -161 -96.5 -260.5t-243.5 -99.5h-125q-148 0 -245 99.5t-97 260.5zM199 1202q0 21 20 41q97 86 170 86q33 0 66 -11t50.5 -21.5t45.5 -30.5l6 -4l10 -9q47 -28 74 -28q17 0 78 53 q17 14 37 14q23 0 40 -17t17 -40q0 -19 -14 -37q-92 -88 -158 -88q-47 0 -82 16t-74 45q-5 4 -19 13.5t-20.5 13t-17.5 9.5t-20.5 8t-20.5 2q-26 0 -84 -46l-10 -8q-13 -16 -39 -16q-23 0 -39 16t-16 39zM211 348q0 -107 67 -182.5t166 -75.5h125q98 0 166 76t68 182v311 q0 110 -69 194.5t-165 84.5h-125q-97 0 -165 -84.5t-68 -194.5v-311z" />
<glyph unicode="&#xf6;" horiz-adv-x="1011" d="M102 348v311q0 164 96.5 272.5t245.5 108.5h125q147 0 243.5 -109t96.5 -272v-311q0 -161 -96.5 -260.5t-243.5 -99.5h-125q-148 0 -245 99.5t-97 260.5zM211 348q0 -107 67 -182.5t166 -75.5h125q98 0 166 76t68 182v311q0 110 -69 194.5t-165 84.5h-125 q-97 0 -165 -84.5t-68 -194.5v-311zM287 1176v53q0 24 14.5 39.5t38.5 15.5q23 0 38 -16t15 -39v-53q0 -24 -14.5 -39t-38.5 -15q-25 0 -39 14.5t-14 39.5zM621 1176v53q0 23 15 39t38 16t39 -16t16 -39v-53q0 -24 -15.5 -39t-39.5 -15t-38.5 15t-14.5 39z" />
<glyph unicode="&#xf7;" horiz-adv-x="905" d="M102 715q0 21 16 37t40 16h592q23 0 38 -16t15 -39t-15 -38.5t-38 -15.5h-594q-24 3 -39 18t-15 38zM393 332v80q0 24 17 41.5t43 17.5q23 0 41 -18t18 -41v-76q0 -27 -17.5 -44.5t-41.5 -17.5q-26 0 -43 16.5t-17 41.5zM393 1010v80q0 24 17 41.5t43 17.5q23 0 41 -18 t18 -41v-76q0 -27 -17.5 -45.5t-41.5 -18.5q-26 0 -43 17.5t-17 42.5z" />
<glyph unicode="&#xf8;" horiz-adv-x="1011" d="M102 348v311q0 164 96.5 272.5t245.5 108.5h125q47 0 90 -14l64 143q18 37 51 37q3 0 11.5 -2t11.5 -2q32 -13 32 -51q0 -5 -6 -23q-2 -5 -67 -149q74 -51 113.5 -134t39.5 -186v-311q0 -161 -96.5 -260.5t-243.5 -99.5h-125q-56 0 -118 20l-70 -158q-11 -32 -49 -32 q-13 0 -21 4q-34 12 -34 51q0 9 8 33l71 155q-60 48 -94.5 123t-34.5 164zM211 348q0 -107 65 -182q58 130 168.5 383t169.5 383q-21 6 -45 6h-125q-97 0 -165 -84.5t-68 -194.5v-311zM369 102q35 -12 75 -12h125q98 0 166 76t68 182v311q0 137 -90 218q-68 -156 -195 -441 t-149 -334z" />
<glyph unicode="&#xf9;" d="M102 340v647q0 21 16.5 38t39.5 17q22 0 37.5 -17t15.5 -38v-647q0 -104 62.5 -171t150.5 -67h344v881q0 24 16 41.5t39 17.5t38.5 -17t15.5 -38v-901q0 -35 -24.5 -60.5t-61.5 -25.5h-367q-135 0 -228.5 92t-93.5 248zM285 1327q0 13 4 21q15 30 49 30l24 -6 q16 -7 138.5 -65.5t181.5 -85.5q31 -17 31 -47q0 -13 -6 -25q-16 -29 -45 -29q-17 0 -25 8l-324 150q-28 14 -28 49z" />
<glyph unicode="&#xfa;" d="M102 340v647q0 21 16.5 38t39.5 17q22 0 37.5 -17t15.5 -38v-647q0 -104 62.5 -171t150.5 -67h344v881q0 24 16 41.5t39 17.5t38.5 -17t15.5 -38v-901q0 -35 -24.5 -60.5t-61.5 -25.5h-367q-135 0 -228.5 92t-93.5 248zM285 1174q0 31 32 47l322 153q8 4 20 4 q35 0 50 -30q4 -6 4 -21q0 -30 -27 -49l-324 -150q-11 -8 -26 -8q-30 0 -47 33q-4 8 -4 21z" />
<glyph unicode="&#xfb;" d="M102 340v647q0 21 16.5 38t39.5 17q22 0 37.5 -17t15.5 -38v-647q0 -104 62.5 -171t150.5 -67h344v881q0 24 16 41.5t39 17.5t38.5 -17t15.5 -38v-901q0 -35 -24.5 -60.5t-61.5 -25.5h-367q-135 0 -228.5 92t-93.5 248zM254 1174q0 18 12 30l156 174q31 39 78 39 q38 0 69 -35l166 -180q10 -17 10 -28q0 -23 -14 -37.5t-35 -14.5q-24 0 -41 17l-155 166l-160 -168q-15 -15 -35 -15q-22 0 -36.5 14.5t-14.5 37.5z" />
<glyph unicode="&#xfc;" d="M102 340v647q0 21 16.5 38t39.5 17q22 0 37.5 -17t15.5 -38v-647q0 -104 62.5 -171t150.5 -67h344v881q0 24 16 41.5t39 17.5t38.5 -17t15.5 -38v-901q0 -35 -24.5 -60.5t-61.5 -25.5h-367q-135 0 -228.5 92t-93.5 248zM279 1176v53q0 24 14.5 39.5t38.5 15.5 q23 0 38 -16t15 -39v-53q0 -24 -14.5 -39t-38.5 -15q-25 0 -39 14.5t-14 39.5zM612 1176v53q0 23 15.5 39t38.5 16t39 -16t16 -39v-53q0 -24 -15.5 -39t-39.5 -15t-39 15t-15 39z" />
<glyph unicode="&#xfd;" horiz-adv-x="989" d="M102 971q0 23 15 38t37 15q35 0 51 -35q49 -160 142.5 -458.5t129.5 -413.5q4 -11 12 -11q17 0 17 9l278 872q7 15 20.5 26t29.5 11q23 0 38 -15t15 -38q0 -9 -2 -15l-434 -1374q-12 -35 -50 -35q-22 0 -36.5 14.5t-14.5 37.5q0 12 2 16l121 387q-33 5 -60 27.5t-36 52.5 l-273 876q0 1 -1 6.5t-1 6.5zM283 1180q0 32 30 47l324 153q6 4 18 4q35 0 50 -30q4 -6 4 -21q0 -30 -27 -49l-324 -149q-12 -9 -24 -9q-32 0 -49 33q-2 8 -2 21z" />
<glyph unicode="&#xfe;" horiz-adv-x="974" d="M102 -397v1816q0 25 15.5 40.5t38.5 15.5q24 0 39.5 -15.5t15.5 -40.5v-377h336q69 0 125.5 -26t93 -67t61 -93.5t35 -102.5t10.5 -98v-315q0 -156 -93 -248t-228 -92h-340v-397q0 -25 -15.5 -40.5t-39.5 -15.5q-22 0 -38 16t-16 40zM211 102h340q88 0 150.5 67t62.5 171 v309q0 126 -61 205.5t-156 79.5h-336v-832z" />
<glyph unicode="&#xff;" horiz-adv-x="989" d="M102 971q0 23 15 38t37 15q35 0 51 -35q49 -160 142.5 -458.5t129.5 -413.5q4 -11 12 -11q17 0 17 9l278 872q7 15 20.5 26t29.5 11q23 0 38 -15t15 -38q0 -9 -2 -15l-434 -1374q-12 -35 -50 -35q-22 0 -36.5 14.5t-14.5 37.5q0 12 2 16l121 387q-33 5 -60 27.5t-36 52.5 l-273 876q0 1 -1 6.5t-1 6.5zM274 1176v53q0 24 15 39.5t39 15.5q23 0 39 -16t16 -39v-53q0 -24 -15.5 -39t-39.5 -15q-25 0 -39.5 14.5t-14.5 39.5zM608 1176v53q0 23 15.5 39t38.5 16q24 0 39.5 -15.5t15.5 -39.5v-53q0 -25 -15 -39.5t-40 -14.5q-24 0 -39 15t-15 39z" />
<glyph unicode="&#x152;" horiz-adv-x="1587" d="M102 483v455q0 259 125 377.5t359 118.5h839q26 0 43 -16t17 -40t-15.5 -39.5t-39.5 -15.5h-689v-522h564q27 0 44 -16t17 -40q0 -25 -16 -41t-41 -16h-568v-577h684q26 0 43 -15.5t17 -40.5q0 -23 -16 -39t-39 -16h-844q-228 0 -356 131.5t-128 351.5zM217 483 q0 -168 97 -271t272 -103h45v1214h-45q-369 0 -369 -385v-455z" />
<glyph unicode="&#x153;" horiz-adv-x="1685" d="M102 348v311q0 163 97.5 272t244.5 109h125q96 0 170.5 -44.5t118.5 -127.5q91 174 330 174q191 0 293 -101.5t102 -295.5v-96q0 -35 -24.5 -58.5t-59.5 -23.5h-586q3 -188 62 -276.5t207 -88.5h313q26 0 40.5 -14.5t14.5 -36.5t-14 -36.5t-37 -14.5h-319 q-234 0 -316 156q-47 -76 -125.5 -122t-169.5 -46h-125q-147 0 -244.5 100t-97.5 260zM211 348q0 -107 67 -182.5t166 -75.5h125q99 0 166.5 75.5t67.5 182.5v311q0 110 -68 194.5t-166 84.5h-125q-97 0 -165 -84.5t-68 -194.5v-311zM913 569h562v76q0 295 -287 295 q-128 0 -201.5 -80t-73.5 -215v-76z" />
<glyph unicode="&#x178;" horiz-adv-x="1165" d="M102 1378q0 24 16 40t40 16q30 0 47 -27l381 -643l375 641q18 29 47 29q24 0 39.5 -16t15.5 -40q0 -18 -6 -28l-416 -697v-598q0 -24 -15.5 -39.5t-39.5 -15.5t-40 16t-16 39v598l-419 693q-9 27 -9 32zM360 1585v55q0 23 15.5 39.5t38.5 16.5q24 0 40.5 -16t16.5 -40 v-55q0 -23 -16 -38t-41 -15q-23 0 -38.5 15t-15.5 38zM698 1585v55q0 24 16 40t40 16q23 0 39 -16.5t16 -39.5v-55q0 -23 -16 -38t-39 -15q-25 0 -40.5 15t-15.5 38z" />
<glyph unicode="&#x2c6;" horiz-adv-x="696" d="M102 1233q0 16 11 31l155 174q35 39 80 39q40 0 70 -37l164 -176q12 -20 12 -31q0 -22 -14.5 -36.5t-34.5 -14.5q-26 0 -41 18l-156 164l-160 -166q-16 -16 -34 -16q-23 0 -37.5 14t-14.5 37z" />
<glyph unicode="&#x2dc;" horiz-adv-x="819" d="M102 1194q0 20 21 41q95 84 170 84q77 0 162 -64q6 -3 22.5 -14t23.5 -14.5t19.5 -8t24.5 -4.5q4 0 10 3t15.5 9.5t16 12t19 15.5l17.5 14q16 16 36 16q23 0 40.5 -17.5t17.5 -39.5q0 -18 -15 -37q-98 -90 -157 -90q-33 0 -64 10.5t-47.5 20.5t-44.5 30l-6 4l-10 9 q-52 32 -82 32q-33 0 -94 -53q-14 -14 -39 -14q-24 0 -40 15.5t-16 39.5z" />
<glyph unicode="&#x2000;" horiz-adv-x="955" />
<glyph unicode="&#x2001;" horiz-adv-x="1911" />
<glyph unicode="&#x2002;" horiz-adv-x="955" />
<glyph unicode="&#x2003;" horiz-adv-x="1911" />
<glyph unicode="&#x2004;" horiz-adv-x="637" />
<glyph unicode="&#x2005;" horiz-adv-x="477" />
<glyph unicode="&#x2006;" horiz-adv-x="318" />
<glyph unicode="&#x2007;" horiz-adv-x="318" />
<glyph unicode="&#x2008;" horiz-adv-x="238" />
<glyph unicode="&#x2009;" horiz-adv-x="382" />
<glyph unicode="&#x200a;" horiz-adv-x="106" />
<glyph unicode="&#x2010;" horiz-adv-x="872" d="M102 537q0 20 16.5 35.5t39.5 15.5h559q24 0 38.5 -14.5t14.5 -38.5q0 -25 -14 -39.5t-39 -14.5h-561q-23 3 -38.5 17.5t-15.5 38.5z" />
<glyph unicode="&#x2011;" horiz-adv-x="872" d="M102 537q0 20 16.5 35.5t39.5 15.5h559q24 0 38.5 -14.5t14.5 -38.5q0 -25 -14 -39.5t-39 -14.5h-561q-23 3 -38.5 17.5t-15.5 38.5z" />
<glyph unicode="&#x2012;" horiz-adv-x="872" d="M102 537q0 20 16.5 35.5t39.5 15.5h559q24 0 38.5 -14.5t14.5 -38.5q0 -25 -14 -39.5t-39 -14.5h-561q-23 3 -38.5 17.5t-15.5 38.5z" />
<glyph unicode="&#x2013;" horiz-adv-x="1038" d="M102 555q0 22 16.5 37.5t39.5 15.5h725q23 0 38 -15t15 -40q0 -23 -15 -38t-38 -15h-727q-23 3 -38.5 18t-15.5 37z" />
<glyph unicode="&#x2014;" horiz-adv-x="1306" d="M102 555q0 22 16 37.5t40 15.5h993q23 0 38 -15t15 -40q0 -23 -15 -38t-38 -15h-995q-24 3 -39 17.5t-15 37.5z" />
<glyph unicode="&#x2018;" horiz-adv-x="395" d="M102 1124v140q0 54 35.5 95.5t89.5 53.5q10 4 19 4q22 0 34.5 -12.5t12.5 -34.5q0 -15 -8.5 -28.5t-20.5 -18.5q-49 -20 -49 -59v-140q0 -22 -16 -39.5t-39 -17.5q-22 0 -40 17.5t-18 39.5z" />
<glyph unicode="&#x2019;" horiz-adv-x="395" d="M102 1114q0 35 31 47q49 22 49 60v139q0 24 16 40.5t40 16.5q22 0 38.5 -17t16.5 -40v-139q0 -53 -35.5 -94.5t-87.5 -55.5q-12 -4 -20 -4q-20 0 -34 13.5t-14 33.5z" />
<glyph unicode="&#x201a;" horiz-adv-x="395" d="M102 -78q0 15 9.5 28.5t21.5 18.5q18 6 33.5 21t15.5 37v141q0 23 16 40t40 17q22 0 38.5 -17.5t16.5 -39.5v-141q0 -53 -35.5 -94.5t-87.5 -55.5q-12 -4 -20 -4q-20 0 -34 13.5t-14 35.5z" />
<glyph unicode="&#x201c;" horiz-adv-x="600" d="M102 1124v140q0 54 35.5 95.5t89.5 53.5q10 4 19 4q22 0 34.5 -12.5t12.5 -34.5q0 -15 -8.5 -28.5t-20.5 -18.5q-49 -20 -49 -59v-140q0 -22 -16 -39.5t-39 -17.5q-22 0 -40 17.5t-18 39.5zM307 1124v140q0 54 35.5 95.5t89.5 53.5q10 4 19 4q22 0 34.5 -12.5t12.5 -34.5 q0 -15 -8.5 -28.5t-20.5 -18.5q-49 -20 -49 -59v-140q0 -22 -16 -39.5t-39 -17.5q-22 0 -40 17.5t-18 39.5z" />
<glyph unicode="&#x201d;" horiz-adv-x="600" d="M102 1114q0 35 31 47q49 22 49 60v139q0 24 16 40.5t40 16.5q22 0 38.5 -17t16.5 -40v-139q0 -53 -35.5 -94.5t-87.5 -55.5q-12 -4 -20 -4q-20 0 -34 13.5t-14 33.5zM307 1114q0 35 31 47q49 22 49 60v139q0 24 15.5 40.5t39.5 16.5q22 0 39 -17t17 -40v-139 q0 -53 -35.5 -94.5t-87.5 -55.5q-12 -4 -21 -4q-20 0 -33.5 13.5t-13.5 33.5z" />
<glyph unicode="&#x201e;" horiz-adv-x="600" d="M102 -78q0 15 9.5 28.5t21.5 18.5q18 6 33.5 21t15.5 37v141q0 23 16 40t40 17q22 0 38.5 -17.5t16.5 -39.5v-141q0 -53 -35.5 -94.5t-87.5 -55.5q-12 -4 -20 -4q-20 0 -34 13.5t-14 35.5zM307 -78q0 15 9.5 28.5t21.5 18.5q18 6 33.5 21t15.5 37v141q0 23 15.5 40 t39.5 17q22 0 39 -17.5t17 -39.5v-141q0 -53 -35.5 -94.5t-87.5 -55.5q-12 -4 -21 -4q-20 0 -33.5 13.5t-13.5 35.5z" />
<glyph unicode="&#x2022;" horiz-adv-x="657" d="M102 637q0 92 66 158.5t160 66.5q92 0 159.5 -67t67.5 -158q0 -94 -67 -159.5t-160 -65.5q-95 0 -160.5 65t-65.5 160z" />
<glyph unicode="&#x2026;" horiz-adv-x="876" d="M102 59v78q0 25 16.5 42.5t41.5 17.5t42 -17.5t17 -42.5v-74q0 -29 -17 -46t-42 -17t-41.5 16.5t-16.5 42.5zM379 59v78q0 25 17 42.5t42 17.5q24 0 42 -18t18 -42v-74q0 -28 -18 -45.5t-42 -17.5q-25 0 -42 16.5t-17 42.5zM657 59v78q0 25 17 42.5t43 17.5 q23 0 40 -17.5t17 -42.5v-74q0 -28 -16.5 -45.5t-40.5 -17.5q-26 0 -43 16.5t-17 42.5z" />
<glyph unicode="&#x202f;" horiz-adv-x="382" />
<glyph unicode="&#x2039;" horiz-adv-x="573" d="M102 553q0 45 39 80l248 190q15 11 31 11q22 0 36.5 -15t14.5 -37q0 -21 -18 -39l-256 -190l254 -199q20 -17 20 -41q0 -20 -14.5 -34.5t-36.5 -14.5q-17 0 -33 12q-1 0 -50.5 42.5t-111.5 94.5t-86 70q-37 30 -37 70z" />
<glyph unicode="&#x203a;" horiz-adv-x="573" d="M102 313q0 23 21 41l233 197l-235 192q-19 19 -19 39q0 22 15 37t37 15q17 0 28 -11l250 -190q39 -35 39 -80q0 -40 -37 -70q-24 -18 -86 -70t-112 -95l-50 -42q-20 -12 -32 -12q-22 0 -37 14.5t-15 34.5z" />
<glyph unicode="&#x205f;" horiz-adv-x="477" />
<glyph unicode="&#x20ac;" horiz-adv-x="1208" d="M102 553q0 22 16.5 37.5t39.5 15.5h69v166h-71q-23 3 -38.5 17.5t-15.5 37.5q0 21 16.5 38t39.5 18h69q0 256 122 372.5t353 116.5h351q21 0 37 -16t16 -37q0 -20 -16.5 -36.5t-36.5 -16.5h-351q-364 0 -364 -385h565q24 0 38.5 -16t14.5 -40q0 -25 -14 -39t-39 -14h-565 v-166h565q25 0 39 -15t14 -40q0 -24 -14.5 -38.5t-38.5 -14.5h-565v-19q0 -166 96 -269.5t268 -103.5h347q24 0 40.5 -16t16.5 -37t-16 -37t-37 -16h-351q-225 0 -350 130t-125 349v19h-71q-23 3 -38.5 18t-15.5 37z" />
<glyph unicode="&#x2122;" horiz-adv-x="1609" d="M102 1362q0 20 16 36.5t36 16.5h505q23 0 39.5 -16t16.5 -37t-16 -36t-37 -15h-201v-674q0 -20 -16 -35.5t-35 -15.5q-21 0 -37.5 15.5t-16.5 35.5v674h-202q-21 0 -36.5 15t-15.5 36zM764 637v676q0 40 30 71t72 31q35 0 64.5 -20t38.5 -52q32 -116 85 -295t76 -260 l175 558q9 29 38.5 49t59.5 20q41 0 72.5 -31t31.5 -71v-676q0 -20 -16.5 -35.5t-36.5 -15.5t-36.5 15.5t-16.5 35.5v661l-213 -671q-14 -41 -60 -41q-42 0 -63 47l-197 657v-653q0 -20 -16.5 -35.5t-36.5 -15.5t-35.5 15.5t-15.5 35.5z" />
<glyph unicode="&#x25fc;" horiz-adv-x="1024" d="M0 0v1024h1024v-1024h-1024z" />
<glyph unicode="&#xfb01;" horiz-adv-x="1069" d="M102 973q0 22 15 36.5t37 14.5h90q15 171 103.5 265t256.5 124q29 0 44.5 -13.5t15.5 -37.5q0 -42 -41 -49q-119 -20 -184.5 -91.5t-84.5 -197.5h260q23 0 37.5 -14.5t14.5 -36.5t-14.5 -36.5t-37.5 -14.5h-264v-867q0 -24 -17.5 -39.5t-39.5 -15.5q-23 0 -37 14.5 t-14 36.5v871h-88q-22 0 -37 14.5t-15 36.5zM858 53v916q0 24 14.5 39.5t38.5 15.5q23 0 39.5 -16t16.5 -39v-916q0 -23 -16 -38t-40 -15t-38.5 14.5t-14.5 38.5zM858 1323v39q0 25 14 40t39 15q24 0 40 -15.5t16 -39.5v-39q0 -23 -16 -38t-40 -15t-38.5 14.5t-14.5 38.5z " />
<glyph unicode="&#xfb02;" horiz-adv-x="1079" d="M102 973q0 22 15 36.5t37 14.5h90q15 171 103.5 265t256.5 124q29 0 45.5 -14t16.5 -37q0 -20 -12 -33t-31 -16q-119 -20 -184.5 -91.5t-84.5 -197.5h260q23 0 37.5 -14.5t14.5 -36.5t-14.5 -36.5t-37.5 -14.5h-264v-867q0 -24 -17.5 -39.5t-39.5 -15.5q-23 0 -37 14.5 t-14 36.5v871h-88q-22 0 -37 14.5t-15 36.5zM868 55v1307q0 24 15 39.5t39 15.5q25 0 40 -16t15 -43v-1299q0 -26 -15 -42.5t-40 -16.5q-23 0 -38.5 16t-15.5 39z" />
</font>
</defs>
</svg>
